<svg xmlns="http://www.w3.org/2000/svg" width="11.992" height="15.991" viewBox="0 0 11.992 15.991">
  <path id="シェイプ_69" data-name="シェイプ 69" d="M428.505,489.527c-2.359-3.667-3.3-8.24-1.723-9.343l.227-.158,2.542,3.95a.839.839,0,0,0-.134.925,18.677,18.677,0,0,0,1.589,2.882,18.187,18.187,0,0,0,1.957,2.628.762.762,0,0,0,.873.224l2.542,3.951-.227.158a1.5,1.5,0,0,1-.88.252C433.449,495,430.5,492.623,428.505,489.527Zm5.789.817.821-.572A.767.767,0,0,1,436.2,490l1.658,2.577a.836.836,0,0,1-.215,1.131l-.822.572Zm-6.839-10.628.822-.572a.765.765,0,0,1,1.087.225l1.658,2.577a.835.835,0,0,1-.215,1.131l-.821.572Z" transform="translate(-426.002 -479.006)" fill="#fff"/>
</svg>
