<svg xmlns="http://www.w3.org/2000/svg" width="69.957" height="70.014" viewBox="0 0 69.957 70.014">
  <path id="シェイプ_7" data-name="シェイプ 7" d="M355.666,3720.025c-15.75-15.762-18.7-38.768-12.877-47.722l20.421,20.444a6.113,6.113,0,0,0,1.149,6.969l11.941,12.044a6.1,6.1,0,0,0,6.963,1.15l20.361,20.383c-2.745,1.8-6.749,2.722-11.432,2.722C381.234,3736.013,366.566,3730.936,355.666,3720.025Zm30.786-9.724,1.442-1.443a6.294,6.294,0,0,1,8.695,0l11.593,11.6a6.168,6.168,0,0,1,0,8.7l-1.443,1.443Zm19.429-13.526a26.689,26.689,0,0,0-26.644-26.671,2.051,2.051,0,0,1,0-4.1,30.793,30.793,0,0,1,30.743,30.774,2.05,2.05,0,1,1-4.1,0Zm-8.2,0a18.477,18.477,0,0,0-18.447-18.465,2.052,2.052,0,0,1,0-4.1,22.582,22.582,0,0,1,22.544,22.568,2.049,2.049,0,1,1-4.1,0Zm-8.2,0a10.263,10.263,0,0,0-10.247-10.258,2.052,2.052,0,0,1,0-4.1,14.373,14.373,0,0,1,14.348,14.362,2.05,2.05,0,1,1-4.1,0Zm-8.2,0a2.052,2.052,0,0,0-2.05-2.051,2.052,2.052,0,0,1,0-4.1,6.16,6.16,0,0,1,6.15,6.155,2.05,2.05,0,1,1-4.1,0Zm-35.76-27.532,1.44-1.442a6.155,6.155,0,0,1,8.7,0l11.592,11.6a6.159,6.159,0,0,1,0,8.706l-1.44,1.443Z" transform="translate(-340.024 -3666.001)" fill="#f57679"/>
</svg>
