<svg xmlns="http://www.w3.org/2000/svg" width="69.998" height="69.999" viewBox="0 0 69.998 69.999">
  <path id="シェイプ_8" data-name="シェイプ 8" d="M1090,3736v-55.956h14.049V3666h38.989v19.059l-9,8.995h-35.074v4.1h30.973l-4.614,4.611h-26.359v4.1h22.257l-6.08,6.079-3.855,9.112-3.089-3.088-4.812,4.812h-6.85v4.1h8.549l3.113-3.113,3.491,3.489,13.188-5.578,18.161-18.155V3736Zm15.1-46.558h22.836v-4.1H1105.1Zm13.089,26.834,3.36,3.361-5.826,2.464Zm2.608-3.187,24.153-24.15,3.933,3.932-24.154,24.151Zm27.064-27.054,2.6-2.6a2.3,2.3,0,0,1,1.705-.67l4.934-4.934,2.9,2.9-4.935,4.932c0,.025.006.051.006.076a2.283,2.283,0,0,1-.677,1.63l-2.6,2.6Zm-57.59-10.092,9.672-9.671v9.671Z" transform="translate(-1090 -3665.999)" fill="#f57679"/>
</svg>
