<svg xmlns="http://www.w3.org/2000/svg" width="200" height="200" viewBox="0 0 200 200">
  <g id="グループ_3" data-name="グループ 3" transform="translate(-789 -1568)">
    <g id="楕円形_4" data-name="楕円形 4" transform="translate(789 1568)" fill="#fff" stroke="#f2bcbd" stroke-width="5">
      <circle cx="100" cy="100" r="100" stroke="none"/>
      <circle cx="100" cy="100" r="97.5" fill="none"/>
    </g>
    <g id="グループ_8" data-name="グループ 8">
      <circle id="シェイプ_154" data-name="シェイプ 154" cx="50" cy="50" r="50" transform="translate(839 1617)" fill="#fd8469"/>
      <path id="シェイプ_155" data-name="シェイプ 155" d="M904.452,1618.767l-7.656,7.845,9.976,10.178,11.058-11.344A48.013,48.013,0,0,0,904.452,1618.767Z" fill="#ffd05b"/>
      <path id="シェイプ_156" data-name="シェイプ 156" d="M841.886,1651.8l7.846,7.63,10.179-9.942-11.344-11.1A49.31,49.31,0,0,0,841.886,1651.8Z" fill="#4cdbc4"/>
      <path id="シェイプ_157" data-name="シェイプ 157" d="M859.8,1708.112a49.065,49.065,0,0,0,13.378,6.68l7.655-7.846-9.976-10.178Z" fill="#324a5e"/>
      <path id="シェイプ_158" data-name="シェイプ 158" d="M930.229,1695.6a49.075,49.075,0,0,0,6.68-13.379l-7.846-7.655-10.177,9.976Z" fill="#54c0eb"/>
      <path id="シェイプ_159" data-name="シェイプ 159" d="M872.854,1697.8a5.686,5.686,0,0,0,1.263-3s-.632-6.156,2.051-8.761c2.683-2.681,2.368-5.127,2.368-5.127a1.7,1.7,0,0,1,.708-1.107c.711-.473,1.816-.315,2.053.4a8.766,8.766,0,0,1-.237,5.287l7.1-7.97a1.651,1.651,0,0,1,2.368-.157,1.77,1.77,0,0,1,.237,2.525l-6.155,7.181a.147.147,0,0,0,0,.237.149.149,0,0,0,.237,0l6.865-7.892a1.715,1.715,0,0,1,2.21-.394c.078,0,.078.078.157.078a1.745,1.745,0,0,1,.157,2.447l-6.55,7.5a.168.168,0,0,0,.238.238l5.051-5.761a1.64,1.64,0,0,1,2.524,0,1.683,1.683,0,0,1-.078,2.209l-5.524,6.313a.167.167,0,0,0,.237.237l3.471-3.946a1.6,1.6,0,0,1,2.21-.157,1.464,1.464,0,0,1,.316,2.289l-4.577,5.05a37.677,37.677,0,0,1-6.55,5.76l-2.052,1.421s-1.421.948-3.078,2.289Zm43.952-15.862s-6.153.631-8.759-2.052c-2.682-2.683-5.129-2.368-5.129-2.368a1.7,1.7,0,0,1-1.1-.709c-.474-.711-.315-1.815.394-2.054a8.778,8.778,0,0,1,5.287.239l-8.048-7.182a1.648,1.648,0,0,1-.158-2.367,1.769,1.769,0,0,1,2.525-.237l7.181,6.155a.168.168,0,0,0,.238-.237l-7.893-6.865a1.717,1.717,0,0,1-.394-2.21c0-.078.079-.078.079-.157a1.744,1.744,0,0,1,2.446-.158l7.5,6.55a.151.151,0,0,0,.239,0,.149.149,0,0,0,0-.237L905.444,1663a1.641,1.641,0,0,1,0-2.524,1.684,1.684,0,0,1,2.21.078l6.313,5.524a.167.167,0,0,0,.236-.238l-3.945-3.551a1.6,1.6,0,0,1-.158-2.209,1.642,1.642,0,0,1,2.367-.157l5.05,4.577a37.576,37.576,0,0,1,5.761,6.549l1.42,2.051s.948,1.343,2.289,3.08l-7.181,7.022A5.653,5.653,0,0,0,916.807,1681.936Zm-51.213-7.814-5.13-4.577A41.2,41.2,0,0,1,854.7,1663l-1.421-2.052s-.948-1.42-2.288-3.078l7.18-7.023a5.648,5.648,0,0,0,3,1.262s6.156-.631,8.761,2.052c2.682,2.682,5.127,2.368,5.127,2.368a1.7,1.7,0,0,1,1.106.709c.473.711.316,1.815-.4,2.053a8.77,8.77,0,0,1-5.287-.238l7.97,7.182a1.822,1.822,0,0,1,.236,2.445,1.767,1.767,0,0,1-2.524.237l-7.181-6.154a.167.167,0,0,0-.236.237l7.89,6.865a1.716,1.716,0,0,1,.4,2.209c0,.079-.08.079-.08.158a1.742,1.742,0,0,1-2.446.157l-7.5-6.549a.167.167,0,0,0-.236.238l5.759,5.05a1.641,1.641,0,0,1,0,2.525,1.681,1.681,0,0,1-2.209-.08l-6.313-5.522a.147.147,0,0,0-.237,0,.149.149,0,0,0,0,.237l3.945,3.472a1.6,1.6,0,0,1,.159,2.209,1.551,1.551,0,0,1-1.227.585A1.492,1.492,0,0,1,865.594,1674.122Zm21.779-17.439a1.77,1.77,0,0,1-.237-2.525l6.155-7.179a.168.168,0,0,0-.237-.238l-6.864,7.892a1.717,1.717,0,0,1-2.211.394c-.078,0-.078-.078-.157-.078a1.744,1.744,0,0,1-.157-2.447l6.55-7.5a.168.168,0,0,0-.238-.238l-5.051,5.761a1.64,1.64,0,0,1-2.524,0,1.683,1.683,0,0,1,.078-2.21l5.524-6.313a.167.167,0,0,0-.237-.236l-3.55,3.946a1.6,1.6,0,0,1-2.21.157,1.644,1.644,0,0,1-.157-2.368l4.576-5.049a41.187,41.187,0,0,1,6.55-5.762l2.051-1.419s1.421-.948,3.078-2.29l7.024,7.181a7.38,7.38,0,0,0-1.263,3s.63,6.155-2.052,8.76c-2.683,2.682-2.367,5.129-2.367,5.129a1.7,1.7,0,0,1-.71,1.1c-.71.474-1.814.316-2.053-.394a8.772,8.772,0,0,1,.238-5.287l-7.182,8.049a1.7,1.7,0,0,1-1.267.585A1.649,1.649,0,0,1,887.373,1656.683Z" fill="#fff"/>
    </g>
  </g>
</svg>
