<svg xmlns="http://www.w3.org/2000/svg" width="200" height="200" viewBox="0 0 200 200">
  <g id="グループ_4" data-name="グループ 4" transform="translate(-1069 -1568)">
    <g id="楕円形_4" data-name="楕円形 4" transform="translate(1069 1568)" fill="#fff" stroke="#f2bcbd" stroke-width="5">
      <circle cx="100" cy="100" r="100" stroke="none"/>
      <circle cx="100" cy="100" r="97.5" fill="none"/>
    </g>
    <g id="グループ_7" data-name="グループ 7">
      <path id="シェイプ_144" data-name="シェイプ 144" d="M1208.972,1627.607v83.71a3.62,3.62,0,0,1-3.6,3.64H1134.56a3.62,3.62,0,0,1-3.6-3.64v-83.71a3.62,3.62,0,0,1,3.6-3.64h70.813A3.62,3.62,0,0,1,1208.972,1627.607Z" fill="#64798a"/>
      <rect id="シェイプ_145" data-name="シェイプ 145" width="78.01" height="4.95" transform="translate(1130.96 1655.1)" fill="#3a556a"/>
      <path id="シェイプ_146" data-name="シェイプ 146" d="M1201.794,1628.846h-19.862l-43.94,11.654v8.1a1.212,1.212,0,0,0,1.206,1.221h62.6a1.21,1.21,0,0,0,1.2-1.221v-18.536A1.213,1.213,0,0,0,1201.794,1628.846Z" fill="#44c4a1"/>
      <path id="シェイプ_147" data-name="シェイプ 147" d="M1139.2,1629.241a1.229,1.229,0,0,0-1.207,1.25v10.68l44-11.93Z" fill="#3ea69b"/>
      <path id="シェイプ_148" data-name="シェイプ 148" d="M1174.08,1709.89V1699.05h11.911v10.841Zm-18.049,0V1699.05h11.9v10.841Zm-18.06,0V1699.05h11.9v10.841Zm36.11-17.07v-10.84h11.911v10.84Zm-18.049,0v-10.84h11.9v10.84Zm-18.06,0v-10.84h11.9v10.84Zm36.11-17.07v-10.84h11.911v10.84Zm-18.049,0v-10.84h11.9v10.84Zm-18.06,0v-10.84h11.9v10.84Z" fill="#e1e6e9"/>
      <path id="シェイプ_149" data-name="シェイプ 149" d="M1174.078,1709.9l11.9-10.842V1709.9Zm-18.051,0,11.9-10.842V1709.9Zm-18.053,0,11.905-10.842V1709.9Zm36.1-17.07,11.9-10.842v10.842Zm-18.051,0,11.9-10.842v10.842Zm-18.053,0,11.905-10.842v10.842Zm36.1-17.071,11.9-10.842v10.842Zm-18.051,0,11.9-10.842v10.842Zm-18.053,0,11.905-10.842v10.842Z" fill="#d5d6db"/>
      <rect id="シェイプ_150" data-name="シェイプ 150" width="11.99" height="10.96" transform="translate(1192 1664.48)" fill="#fcd462"/>
      <rect id="シェイプ_151" data-name="シェイプ 151" width="11.99" height="27.98" transform="translate(1192 1681.84)" fill="#e56353"/>
      <path id="シェイプ_152" data-name="シェイプ 152" d="M1203.99,1709.823H1192l11.995-27.979Z" fill="#d15241"/>
      <path id="シェイプ_153" data-name="シェイプ 153" d="M1203.99,1675.44H1192l11.995-10.962Z" fill="#f6c358"/>
    </g>
  </g>
</svg>
