<svg xmlns="http://www.w3.org/2000/svg" width="275" height="86" viewBox="0 0 275 86">
  <g id="logo" transform="translate(-200 -17)">
    <text id="国分寺_小平_小金井_府中の相続のことなら" data-name="国分寺・小平・小金井・府中の相続のことなら" transform="translate(200 31)" font-size="12" font-family="SourceHanSansJP-Regular, Source Han Sans JP"><tspan x="0" y="0">国分寺・小平・小金井・府中</tspan><tspan y="0">の</tspan><tspan y="0">相続</tspan><tspan y="0">のことなら</tspan></text>
    <path id="コンシェルジュ" d="M428.291,61.371a1.511,1.511,0,0,1,.51-1.054c1.615-1.853,1.886-2.668,1.886-7.156v-3.57c0-.595.187-1.241,1.343-1.241.9,0,1.394.34,1.394,1.241V53.28c0,3.671-.17,6.136-1.955,8.431-.884,1.121-1.292,1.121-1.58,1.121A1.589,1.589,0,0,1,428.291,61.371Zm18.224-.136a1.308,1.308,0,0,1,1.275-1.292c2.736-.477,5.9-1.174,8.057-4.693a18.146,18.146,0,0,0,1.547-3.263c.323-.8.68-.884,1.207-.884.255,0,1.479.221,1.479,1.173a14.484,14.484,0,0,1-3.893,6.851,14.53,14.53,0,0,1-8.329,3.638C446.651,62.765,446.515,61.558,446.515,61.235Zm-47.227,0a1.308,1.308,0,0,1,1.275-1.292c2.737-.477,5.9-1.174,8.057-4.693a18.143,18.143,0,0,0,1.547-3.263c.323-.8.68-.884,1.207-.884.255,0,1.479.221,1.479,1.173a14.476,14.476,0,0,1-3.893,6.851,14.53,14.53,0,0,1-8.329,3.638C399.424,62.765,399.289,61.558,399.289,61.235Zm35.955-.153V49.388c0-.663.255-1.224,1.343-1.224.85,0,1.377.306,1.377,1.224v9.621c0,.22,0,.408.187.408.662,0,2.328-1.343,3.11-3.757.272-.851.442-1.326,1.241-1.326.306,0,1.513.153,1.513,1.207a8.722,8.722,0,0,1-1.428,3.586,8,8,0,0,1-5.746,3.587A1.436,1.436,0,0,1,435.244,61.082ZM382.459,61c0-1.02.612-1.224,1.513-1.343,4.352-.561,7.752-2.227,9.723-7.87.374-1.088.493-1.428,1.258-1.428a1.685,1.685,0,0,1,.459.051,1.262,1.262,0,0,1,1.105,1.207,14.479,14.479,0,0,1-3.247,6.459,12.9,12.9,0,0,1-6.51,3.944,15.769,15.769,0,0,1-2.924.561A1.419,1.419,0,0,1,382.459,61Zm80.5,1.258a1.233,1.233,0,0,1,0-2.465h5.763c.289-1.9.492-4.912.492-5.133,0-.307-.119-.443-.425-.443H464.3a1.232,1.232,0,1,1,0-2.464h5.916a1.581,1.581,0,0,1,1.733,1.8c0,.561-.22,3.162-.629,6.238H473.1a1.1,1.1,0,0,1,1.241,1.224,1.091,1.091,0,0,1-1.241,1.241Zm-47.192-.017a1.114,1.114,0,0,1-1.274-1.207c0-1.037.679-1.224,1.274-1.224h3.655V54.2h-2.924a1.225,1.225,0,1,1,0-2.448h8.431a1.225,1.225,0,1,1,0,2.448H422v5.609h3.654a1.217,1.217,0,1,1,0,2.431ZM367.5,61.9a1.334,1.334,0,1,1,0-2.669h8.363a.509.509,0,0,0,.562-.561v-6.2a.51.51,0,0,0-.562-.561H367.7a1.326,1.326,0,1,1,0-2.652h9.281c1.513,0,2.312.544,2.312,2.329v7.989c0,1.75-.765,2.328-2.312,2.328Zm81.515-5.83c-.408-.187-2.244-.85-2.6-1a1.127,1.127,0,0,1-.833-1.054c0-.357.187-1.411,1.207-1.411a10.818,10.818,0,0,1,2.635.765c2.158.833,2.481,1.105,2.481,1.853,0,.612-.408,1.479-1.241,1.479C450.374,56.7,450.289,56.645,449.014,56.067Zm-47.226,0c-.409-.187-2.244-.85-2.6-1a1.127,1.127,0,0,1-.833-1.054c0-.357.186-1.411,1.207-1.411a10.8,10.8,0,0,1,2.634.765c2.159.833,2.482,1.105,2.482,1.853,0,.612-.409,1.479-1.241,1.479C403.148,56.7,403.062,56.645,401.788,56.067Zm-15.657-2.8c-1.037-.714-2.448-1.5-3.111-1.853-.458-.238-1.02-.527-1.02-1.241a1.6,1.6,0,0,1,1.037-1.427.989.989,0,0,1,.323-.051,7.986,7.986,0,0,1,2.193.918c3.042,1.581,3.281,2.006,3.281,2.652,0,.561-.595,1.58-1.411,1.58C387.1,53.841,386.861,53.772,386.131,53.263Zm64.379-1.6c-.459-.2-.85-.374-1.971-.765-.868-.307-1.48-.527-1.48-1.327,0-.391.2-1.41,1.19-1.41a15.414,15.414,0,0,1,3.4,1.087c1.224.51,1.733.749,1.733,1.547a1.393,1.393,0,0,1-1.257,1.462C451.852,52.26,451.785,52.243,450.509,51.665Zm-47.226,0c-.459-.2-.851-.374-1.972-.765-.867-.307-1.479-.527-1.479-1.327,0-.391.2-1.41,1.19-1.41a15.421,15.421,0,0,1,3.4,1.087c1.224.51,1.734.749,1.734,1.547A1.394,1.394,0,0,1,404.9,52.26C404.626,52.26,404.558,52.243,403.284,51.665Zm54.2-1.786c-.034-.119-.2-.7-.238-.815-.051-.119-.239-.646-.273-.748a1.186,1.186,0,0,1-.05-.323c0-.459.527-.544.662-.544.323,0,.493.238.68.715a5.541,5.541,0,0,1,.425,1.563.6.6,0,0,1-.663.595C457.785,50.322,457.6,50.22,457.479,49.88Zm1.734-.934c-.034-.12-.238-.646-.273-.765a.89.89,0,0,1-.05-.29c0-.459.492-.544.662-.544.357,0,.493.238.663.663a5.447,5.447,0,0,1,.442,1.6c0,.595-.612.595-.663.595C459.587,50.2,459.57,50.084,459.213,48.946Z" fill="#333"/>
    <path id="相続" d="M343.621,68.891c0-.595.231-.76,1.948-2.74a10.834,10.834,0,0,0,1.881-5.017c.033-.4.1-2.278.165-2.674a1.458,1.458,0,0,1,1.419-1.155h-1.947c-.562,0-.627.131-.627.626,0,2.641,0,3.4-1.453,3.4s-1.452-1.057-1.452-2.839a3.459,3.459,0,0,1-1.287.264,2.134,2.134,0,0,1,.3.76c.2.891,1.188,5.215,1.188,5.577a1.606,1.606,0,0,1-1.552,1.518,1.813,1.813,0,0,1-1.617-1.32,44.025,44.025,0,0,1-.891-5.676,1.4,1.4,0,0,1,1.354-1.518,2.7,2.7,0,0,1-.364-1.156c-.23.033-1.319.132-1.518.166V67.8c0,1.386,0,2.641-1.782,2.641-1.947,0-1.947-1.056-1.947-2.641V57.307a35.94,35.94,0,0,1-3.829-.1c-.958-.132-1.32-.958-1.32-1.849,0-1.914,1.056-1.881,3.564-1.849.2-.3.528-.792,1.287-2.079-.693-.661-4.423-3.7-4.554-3.829a1.6,1.6,0,0,1-.594-1.287,1.947,1.947,0,0,1,1.98-1.948,1.532,1.532,0,0,1,.66.132c2.112-3.8,2.476-4.29,3.532-4.29a1.744,1.744,0,0,1,1.815,1.848c0,.528,0,.825-2.376,4.72.726.595,1.056.891,1.386,1.188.364-.693,1.98-4.29,2.047-4.423a1.54,1.54,0,0,1,1.254-.66c.627,0,2.211.594,2.211,1.782,0,1.354-3.73,8.087-4.126,8.78.265-.033,1.419-.1,1.651-.1-.033-.231-.264-1.255-.264-1.485a1.624,1.624,0,0,1,1.749-1.552c1.453,0,1.881,1.651,2.409,4.126a2.231,2.231,0,0,1,2.146-.858h10.957c1.156,0,3.136,0,3.136,2.344v2.442c0,1.287,0,2.542-1.32,2.542-1.354,0-1.354-1.221-1.354-1.849,0-.495,0-1.418-.032-1.518-.067-.23-.265-.23-.76-.23h-1.947c1.485.165,1.485,1.188,1.485,2.607v5.611c0,.561.033.561.66.561.594,0,.627-.2.726-1.815a1.6,1.6,0,0,1,3.2.1,15.831,15.831,0,0,1-.759,4.257,3.083,3.083,0,0,1-2.575,1.651H355.4c-2.839,0-2.871-2.146-2.871-3.268v-7.1c0-1.386,0-2.443,1.452-2.607h-4.191c1.485.131,1.518,1.452,1.518,2.046,0,6.37-3.8,11.288-5.809,11.288A1.624,1.624,0,0,1,343.621,68.891Zm-42.076-1.023V58.461a18.349,18.349,0,0,1-1.419,2.278,1.48,1.48,0,0,1-1.453.792,1.888,1.888,0,0,1-1.98-1.981c0-.428.033-.824,1.155-2.442a34.889,34.889,0,0,0,3.6-7.294h-1.354c-1.386,0-2.641,0-2.641-1.75,0-1.947,1.09-1.947,2.641-1.947h1.453v-2.9c0-1.387,0-2.641,1.782-2.641,2.013,0,2.013,1.023,2.013,2.641v2.9h.759c1.354,0,2.641,0,2.641,1.75,0,1.947-1.089,1.947-2.641,1.947h-.759V51.96a19.243,19.243,0,0,0,2.938,3.663c.759.793.957,1.221.957,1.716a1.761,1.761,0,0,1-1.65,1.981c-.891,0-1.122-.265-2.245-1.585V67.868c0,1.683-.033,2.64-1.75,2.64C301.545,70.508,301.545,69.518,301.545,67.868Zm10.693,1.914a2.887,2.887,0,0,1-2.673-3.136V44.5a2.934,2.934,0,0,1,2.673-3.136h11.42c1.155,0,2.508,1.023,2.508,3.136V66.647c0,1.716-.759,3.136-2.508,3.136Zm1.189-4.357a.6.6,0,0,0,.626.627h7.459a.6.6,0,0,0,.627-.627V61h-8.713Zm0-8.218h8.713V52.785h-8.713Zm0-11.585v3.334h8.713V45.623a.6.6,0,0,0-.627-.627h-7.459A.6.6,0,0,0,313.427,45.623ZM329.99,66.746c0-.792.957-4.191,1.056-4.885.1-.594.265-2.013.4-2.442a1.7,1.7,0,0,1,1.552-.924,1.751,1.751,0,0,1,1.617,1.948,45.467,45.467,0,0,1-1.32,6.864,1.651,1.651,0,0,1-1.32,1.09,1.872,1.872,0,0,1-.344.032A1.617,1.617,0,0,1,329.99,66.746Zm17.129-14.72c-1.254,0-2.739,0-2.739-1.881,0-1.914,1.485-1.914,2.739-1.914h2.905V46.448h-4.093c-1.254,0-2.641,0-2.641-1.849s1.387-1.849,2.641-1.849h4.093c0-1.287,0-2.508,1.782-2.508,1.353,0,2.112.364,2.112,1.914v.594h4.06c1.254,0,2.64,0,2.64,1.849s-1.386,1.849-2.64,1.849h-4.06V48.23h2.673c1.255,0,2.74,0,2.74,1.914,0,1.881-1.485,1.881-2.74,1.881Z" fill="#bb284d"/>
    <path id="国分寺" d="M234.465,68.561c0-1.089.231-1.221,2.674-2.74a13.354,13.354,0,0,0,4.819-5.512,15.7,15.7,0,0,0,1.386-5.149h-3.2c-1.584,0-2.575,0-2.641-1.849C235.455,55.1,234.7,55.1,234.2,55.1a2.183,2.183,0,0,1-2.146-2.146c0-.99.3-1.221,3.07-3.3a18.79,18.79,0,0,0,5.379-7.1c.3-.693.76-1.683,1.914-1.683a2.106,2.106,0,0,1,2.178,1.98c0,2.575-4.522,7.921-4.918,8.318h16.173a28.154,28.154,0,0,1-4.721-6.139,1.1,1.1,0,0,0-1.22-.693h-1.585c-1.188,0-2.772,0-2.772-1.981s1.584-1.98,2.772-1.98h2.179c2.607,0,2.673.066,3.8,1.683,3.3,4.753,3.894,5.611,7.492,8.483a2.345,2.345,0,0,1,1.089,1.881,2.27,2.27,0,0,1-2.08,2.211,4.289,4.289,0,0,1-2.277-1.056,48.927,48.927,0,0,1,.231,5.05c0,8.812-1.287,12.047-6.7,12.047a20.364,20.364,0,0,1-4.95-.693,1.781,1.781,0,0,1-.958-1.75c0-.627.363-2.211,1.75-2.211.329,0,3.168.594,3.762.594a2.281,2.281,0,0,0,2.508-1.65c.528-1.684.627-6.271.627-8.219,0-1.254,0-1.584-.891-1.584h-6.667a18.59,18.59,0,0,1-7.591,14.225,6,6,0,0,1-3.1,1.419A2.253,2.253,0,0,1,234.465,68.561Zm45.707,1.221a1.71,1.71,0,0,1-1.189-1.716,1.9,1.9,0,0,1,1.716-1.981c.231,0,1.486.265,1.75.3a9.109,9.109,0,0,0,1.552.132c1.452,0,1.517-.5,1.517-1.419V59.55H273.6c1.65,1.651,3.861,3.928,3.861,5.248a2.243,2.243,0,0,1-2.178,2.013c-.726,0-1.023-.33-3.564-3.267-1.486-1.716-1.651-1.914-1.651-2.607a2.166,2.166,0,0,1,.561-1.387h-1.617c-1.517,0-2.64,0-2.64-1.881,0-1.749,1.287-1.749,2.64-1.749h16.5V53.114H268.224c-1.518,0-2.673,0-2.673-1.947,0-1.651,1.32-1.684,2.641-1.684h10.132V47.042h-8.053c-1.518,0-2.641,0-2.641-1.914,0-1.716,1.287-1.716,2.641-1.716h8.053c0-1.849,0-2.938,2.211-2.938,2.047,0,2.047,1.254,2.047,2.938h8.251c1.551,0,2.64,0,2.64,1.881,0,1.75-1.287,1.75-2.64,1.75h-8.251v2.442h10.3c1.485,0,2.641.033,2.641,1.882,0,1.749-1.32,1.749-2.641,1.749h-3.267v2.806h2.706c1.485,0,2.641,0,2.641,1.848,0,1.782-1.122,1.782-2.641,1.782h-2.706v5.677c0,3.532-.627,5.248-4.852,5.248A14.281,14.281,0,0,1,280.173,69.782Zm-76.3-.033c-2.905,0-3.73-1.716-3.73-3.763V44.93c0-2.805,1.518-3.763,3.73-3.763H225.13c2.9,0,3.73,1.683,3.73,3.763V65.986c0,2.509-1.221,3.763-3.73,3.763Zm.363-23.2V64.4c0,1.386.4,1.617,1.485,1.617h17.526c1.089,0,1.485-.2,1.485-1.617V46.547c0-1.419-.363-1.651-1.485-1.651H205.723C204.634,44.9,204.238,45.128,204.238,46.547Zm3.168,17.888c-1.287,0-2.64,0-2.64-1.782,0-1.75,1.353-1.75,2.64-1.75h5.117V56.58H208.33c-1.32,0-2.641,0-2.641-1.683s1.32-1.684,2.641-1.684h4.192V49.88h-4.852c-1.255,0-2.641,0-2.641-1.616,0-1.783,1.386-1.783,2.641-1.783H221.3c1.255,0,2.641,0,2.641,1.783,0,1.616-1.386,1.616-2.641,1.616h-4.95v3.334h4.29c1.32,0,2.641,0,2.641,1.684s-1.32,1.683-2.641,1.683h-4.29V60.9h3.2c-1.419-1.518-1.651-1.881-1.651-2.542,0-1.089,1.188-1.518,1.782-1.518.991,0,1.354.4,2.706,1.882a2.582,2.582,0,0,1,.661,1.353,1.351,1.351,0,0,1-.33.859,1.55,1.55,0,0,1,1.486,1.749c0,1.75-1.387,1.75-2.641,1.75Z" fill="#333"/>
    <rect id="長方形_4" data-name="長方形 4" width="275" height="24" rx="12" transform="translate(200 79)" fill="#f57679"/>
    <text id="運営_税理士事務所グレイス" data-name="運営：税理士事務所グレイス" transform="translate(338 96)" fill="#fff" font-size="13" font-family="SourceHanSansJP-Regular, Source Han Sans JP"><tspan x="-84.305" y="0">運営：税理士事務所</tspan><tspan y="0">グレイス</tspan></text>
  </g>
</svg>
