<svg xmlns="http://www.w3.org/2000/svg" width="65.014" height="63.001" viewBox="0 0 65.014 63.001">
  <path id="シェイプ_117" data-name="シェイプ 117" d="M1190.985,1302.244l-20.571-27.031h8.077a1.9,1.9,0,0,0,1.868-1.509l2.266-11.018,8.088,22.281a1.914,1.914,0,0,0,3.551.093l6.324-14.893,2.634,4.162a1.9,1.9,0,0,0,1.613.885h9.764l-20.571,27.031a1.915,1.915,0,0,1-3.042,0Zm-7.075-47.174a1.912,1.912,0,0,0-3.659.263l-3.316,16.106h-9.392l-4.234-5.564a16.029,16.029,0,0,1-1.645-16.839c6.259-12.8,24.414-11.523,30.845.79,4.929-9.444,17.1-12.635,25.309-7.149a16.155,16.155,0,0,1,3.889,23.2l-4.234,5.564h-11.582l-4.021-6.354a1.916,1.916,0,0,0-3.37.271l-5.853,13.777Zm30.688,20.142,2.872-3.774h5.639a1.887,1.887,0,1,1,0,3.774Zm-52.7,0a1.887,1.887,0,1,1,0-3.774h5.639l2.872,3.774Z" transform="translate(-1159.999 -1239.994)" fill="#f57679"/>
</svg>
