<svg xmlns="http://www.w3.org/2000/svg" width="55.988" height="64.997" viewBox="0 0 55.988 64.997">
  <path id="シェイプ_114" data-name="シェイプ 114" d="M721.013,1301.9v-53.016L757.281,1240,777,1247.942v53.722L757.247,1305Zm20.548-13.109v10.084l11.838,1.012v-54.028l-27.588,6.756v44.914l8.707.743V1288.7Zm-14.108-10.944,3.984-.245v6.021l-3.984.1Zm8.056-.536,5.062-.31v6.381l-5.062.124Zm9.731-.637,5.717-.349v6.785l-5.717.14Zm-17.787-10.338,3.985-.543v6.023l-3.985.394Zm8.056-1.18,5.062-.682v6.382l-5.062.494Zm9.731-1.4,5.717-.769v6.786l-5.717.56Zm-17.787-8.693,3.984-.838v6.022l-3.984.68Zm8.056-1.828,5.062-1.051v6.38l-5.062.867Zm9.731-2.272,5.717-1.192v6.894l-5.717.979Z" transform="translate(-721.013 -1239.999)" fill="#f57679"/>
</svg>
