<svg xmlns="http://www.w3.org/2000/svg" width="49.996" height="65.006" viewBox="0 0 49.996 65.006">
  <path id="シェイプ_115" data-name="シェイプ 115" d="M288.407,1305a8.375,8.375,0,0,1-8.407-8.325v-48.357a8.376,8.376,0,0,1,8.407-8.324h33.181a8.376,8.376,0,0,1,8.408,8.324v48.357a8.376,8.376,0,0,1-8.408,8.325Zm-4.2-56.682v48.357a4.183,4.183,0,0,0,4.2,4.163h33.181a4.184,4.184,0,0,0,4.2-4.163v-48.357a4.183,4.183,0,0,0-4.2-4.162H288.407A4.182,4.182,0,0,0,284.2,1248.313Zm28.624,46.468V1289.3h6.885v5.482Zm-22.546,0V1289.3h6.884v5.482Zm11.268,0V1289.3h6.889v5.479Zm11.278-9.078v-5.483h6.885v5.483Zm-22.546,0v-5.483h6.884v5.483Zm11.268,0v-5.479h6.889v5.479Zm11.278-9.078v-5.484h6.885v5.484Zm-22.546,0v-5.484h6.884v5.484Zm11.268,0v-5.48h6.889v5.48Zm-15.141-9.111v-1.89h37.18v1.89Zm3.748-7.124v-9.333h29.68v9.333Z" transform="translate(-280 -1239.989)" fill="#f57679"/>
</svg>
