<svg xmlns="http://www.w3.org/2000/svg" width="67.968" height="64.995" viewBox="0 0 67.968 64.995">
  <path id="シェイプ_113" data-name="シェイプ 113" d="M942.991,1304.991a5.992,5.992,0,0,1-5.976-6V1246a5.993,5.993,0,0,1,5.976-6h42.454a5.991,5.991,0,0,1,5.976,6v10l-4.945,4.967V1246a1.037,1.037,0,0,0-1.031-1.037H942.991A1.038,1.038,0,0,0,941.96,1246v52.986a1.038,1.038,0,0,0,1.031,1.037h42.454a1.037,1.037,0,0,0,1.031-1.037v-11.654l4.945-4.968v16.622a5.99,5.99,0,0,1-5.976,6Zm29.081-16.37v-7.915l19.457-19.547,7.88,7.914-19.459,19.548Zm-18.982-.241v-3.73h13.6v3.73Zm0-13.66v-3.729h22.25v3.729ZM993.678,1259l2.306-2.318a3.815,3.815,0,0,1,5.413,0l2.465,2.476a3.858,3.858,0,0,1,0,5.44l-2.3,2.317Zm-40.588,2.06v-3.73h22.25v3.73Z" transform="translate(-937.015 -1239.997)" fill="#f57679"/>
</svg>
