<svg xmlns="http://www.w3.org/2000/svg" width="74.991" height="43.998" viewBox="0 0 74.991 43.998">
  <path id="シェイプ_112" data-name="シェイプ 112" d="M504.109,1295v-31.126h60.874V1295Zm43.406-15.564a14.819,14.819,0,0,1-6.246,12.345h13.489c-.011-.145-.034-.285-.034-.433a6.927,6.927,0,0,1,6.749-6.633v-10.563a6.923,6.923,0,0,1-6.749-6.629c0-.145.023-.286.034-.43H541.269A14.809,14.809,0,0,1,547.515,1279.435Zm-33.151-11.912a6.916,6.916,0,0,1-6.744,6.629v10.563a6.923,6.923,0,0,1,6.744,6.633c0,.148-.024.288-.034.433h13.495a15.319,15.319,0,0,1,0-24.688H514.33C514.34,1267.236,514.364,1267.377,514.364,1267.522Zm14.021,13.429v2.449h4.934v3.37h3.067v-3.37h4.934v-2.454h-4.934v-1.638l.477-.68h4.457v-2.474H538.6l2.257-3.225h-2.941l-3.067,4.373-3.064-4.373h-2.941l2.259,3.225h-2.718v2.474h4.453l.481.683v1.634h-4.934Zm12.935-4.8v0Zm-44.305,11.875v-30.59h59.118v3.221h-55.6v27.369Zm-7.023-8.587V1251H545.6v3.219H493.5v25.223Z" transform="translate(-489.992 -1251)" fill="#f57679"/>
</svg>
