<svg xmlns="http://www.w3.org/2000/svg" width="100" height="100" viewBox="0 0 100 100">
  <g id="グループ_8" data-name="グループ 8" transform="translate(-1074 -804)">
    <circle id="シェイプ_154" data-name="シェイプ 154" cx="50" cy="50" r="50" transform="translate(1074 804)" fill="#fd8469"/>
    <path id="シェイプ_155" data-name="シェイプ 155" d="M1139.452,805.767l-7.656,7.845,9.976,10.178,11.058-11.344A48.01,48.01,0,0,0,1139.452,805.767Z" fill="#ffd05b"/>
    <path id="シェイプ_156" data-name="シェイプ 156" d="M1076.886,838.8l7.846,7.63,10.178-9.942-11.344-11.1A49.306,49.306,0,0,0,1076.886,838.8Z" fill="#4cdbc4"/>
    <path id="シェイプ_157" data-name="シェイプ 157" d="M1094.8,895.112a49.067,49.067,0,0,0,13.378,6.68l7.655-7.846-9.976-10.178Z" fill="#324a5e"/>
    <path id="シェイプ_158" data-name="シェイプ 158" d="M1165.23,882.6a49.081,49.081,0,0,0,6.68-13.379l-7.846-7.654-10.178,9.976Z" fill="#54c0eb"/>
    <path id="シェイプ_159" data-name="シェイプ 159" d="M1107.854,884.8a5.686,5.686,0,0,0,1.263-3s-.632-6.156,2.051-8.761c2.683-2.68,2.368-5.126,2.368-5.126a1.7,1.7,0,0,1,.708-1.107c.711-.473,1.816-.315,2.053.4a8.763,8.763,0,0,1-.237,5.287l7.1-7.97a1.649,1.649,0,0,1,2.367-.158,1.77,1.77,0,0,1,.237,2.525l-6.155,7.182a.147.147,0,0,0,0,.237.149.149,0,0,0,.237,0l6.866-7.892a1.714,1.714,0,0,1,2.21-.394c.078,0,.078.078.157.078a1.744,1.744,0,0,1,.157,2.447l-6.549,7.5a.15.15,0,0,0,0,.239.149.149,0,0,0,.237,0l5.051-5.761a1.64,1.64,0,0,1,2.525,0,1.683,1.683,0,0,1-.078,2.209l-5.524,6.313a.168.168,0,0,0,.238.237l3.47-3.946a1.6,1.6,0,0,1,2.211-.157,1.464,1.464,0,0,1,.315,2.289l-4.576,5.05a37.679,37.679,0,0,1-6.55,5.76l-2.052,1.421s-1.42.948-3.078,2.288Zm43.953-15.862s-6.154.631-8.76-2.053c-2.682-2.682-5.129-2.367-5.129-2.367a1.7,1.7,0,0,1-1.1-.71c-.474-.71-.315-1.814.394-2.053a8.771,8.771,0,0,1,5.287.239l-8.048-7.182a1.648,1.648,0,0,1-.158-2.367,1.77,1.77,0,0,1,2.525-.237l7.181,6.155a.168.168,0,1,0,.238-.238l-7.893-6.864a1.716,1.716,0,0,1-.393-2.21c0-.079.078-.079.078-.157a1.745,1.745,0,0,1,2.447-.158l7.5,6.55a.168.168,0,1,0,.239-.238l-5.762-5.05a1.641,1.641,0,0,1,0-2.525,1.684,1.684,0,0,1,2.21.078l6.313,5.524a.167.167,0,0,0,.236-.238l-3.945-3.551a1.6,1.6,0,0,1-.158-2.209,1.642,1.642,0,0,1,2.367-.158l5.05,4.577a37.579,37.579,0,0,1,5.761,6.549l1.42,2.051s.948,1.343,2.29,3.079l-7.182,7.023A5.646,5.646,0,0,0,1151.807,868.937Zm-51.214-7.814-5.13-4.577A41.245,41.245,0,0,1,1089.7,850l-1.421-2.052s-.948-1.42-2.288-3.079l7.18-7.022a5.656,5.656,0,0,0,3,1.262s6.156-.631,8.761,2.052c2.682,2.682,5.127,2.368,5.127,2.368a1.7,1.7,0,0,1,1.106.709c.473.71.316,1.815-.4,2.053a8.771,8.771,0,0,1-5.287-.238l7.97,7.182a1.822,1.822,0,0,1,.236,2.445,1.767,1.767,0,0,1-2.524.237l-7.181-6.154a.167.167,0,0,0-.236.237l7.89,6.865a1.716,1.716,0,0,1,.4,2.209c0,.078-.079.078-.079.158a1.743,1.743,0,0,1-2.447.157l-7.5-6.549a.167.167,0,0,0-.236.238l5.759,5.049a1.641,1.641,0,0,1,0,2.525,1.681,1.681,0,0,1-2.209-.079l-6.313-5.523a.148.148,0,0,0-.237,0,.149.149,0,0,0,0,.238l3.946,3.472a1.6,1.6,0,0,1,.158,2.209,1.551,1.551,0,0,1-1.227.586A1.493,1.493,0,0,1,1100.594,861.123Zm21.779-17.439a1.769,1.769,0,0,1-.236-2.525l6.155-7.18a.168.168,0,0,0-.238-.239l-6.864,7.893a1.717,1.717,0,0,1-2.211.394c-.078,0-.078-.078-.157-.078a1.745,1.745,0,0,1-.157-2.447l6.55-7.5a.168.168,0,0,0-.238-.238l-5.051,5.761a1.64,1.64,0,0,1-2.525,0,1.683,1.683,0,0,1,.078-2.209l5.524-6.314a.167.167,0,0,0-.237-.236l-3.551,3.946a1.6,1.6,0,0,1-2.21.157,1.645,1.645,0,0,1-.157-2.368l4.577-5.05a41.217,41.217,0,0,1,6.55-5.761l2.051-1.42s1.421-.947,3.078-2.289l7.024,7.181a7.374,7.374,0,0,0-1.263,3s.631,6.155-2.052,8.76c-2.683,2.682-2.367,5.129-2.367,5.129a1.7,1.7,0,0,1-.71,1.1c-.71.474-1.814.316-2.053-.394a8.771,8.771,0,0,1,.239-5.287l-7.182,8.049a1.7,1.7,0,0,1-1.266.585A1.652,1.652,0,0,1,1122.373,843.683Z" fill="#fff"/>
  </g>
</svg>
