<svg xmlns="http://www.w3.org/2000/svg" width="78.012" height="90.99" viewBox="0 0 78.012 90.99">
  <g id="グループ_7" data-name="グループ 7" transform="translate(-335.96 -1433.967)">
    <path id="シェイプ_144" data-name="シェイプ 144" d="M413.972,1437.607v83.71a3.62,3.62,0,0,1-3.6,3.64H339.56a3.62,3.62,0,0,1-3.6-3.64v-83.71a3.62,3.62,0,0,1,3.6-3.64h70.813A3.62,3.62,0,0,1,413.972,1437.607Z" fill="#64798a"/>
    <rect id="シェイプ_145" data-name="シェイプ 145" width="78.01" height="4.95" transform="translate(335.96 1465.1)" fill="#3a556a"/>
    <path id="シェイプ_146" data-name="シェイプ 146" d="M406.794,1438.846H386.932l-43.94,11.654v8.1a1.211,1.211,0,0,0,1.206,1.221h62.6a1.21,1.21,0,0,0,1.2-1.221v-18.536A1.213,1.213,0,0,0,406.794,1438.846Z" fill="#44c4a1"/>
    <path id="シェイプ_147" data-name="シェイプ 147" d="M344.2,1439.241a1.229,1.229,0,0,0-1.207,1.25v10.68l44-11.93Z" fill="#3ea69b"/>
    <path id="シェイプ_148" data-name="シェイプ 148" d="M379.08,1519.89V1509.05h11.91v10.841Zm-18.05,0V1509.05h11.9v10.841Zm-18.059,0V1509.05h11.9v10.841Zm36.11-17.07v-10.841h11.91v10.841Zm-18.05,0v-10.841h11.9v10.841Zm-18.059,0v-10.841h11.9v10.841Zm36.11-17.07v-10.84h11.91v10.84Zm-18.05,0v-10.84h11.9v10.84Zm-18.059,0v-10.84h11.9v10.84Z" fill="#e1e6e9"/>
    <path id="シェイプ_149" data-name="シェイプ 149" d="M379.077,1519.9l11.905-10.842V1519.9Zm-18.05,0,11.9-10.842V1519.9Zm-18.054,0,11.905-10.842V1519.9Zm36.1-17.07,11.905-10.842v10.842Zm-18.05,0,11.9-10.842v10.842Zm-18.054,0,11.905-10.842v10.842Zm36.1-17.071,11.905-10.842v10.842Zm-18.05,0,11.9-10.842v10.842Zm-18.054,0,11.905-10.842v10.842Z" fill="#d5d6db"/>
    <rect id="シェイプ_150" data-name="シェイプ 150" width="11.99" height="10.96" transform="translate(397 1474.48)" fill="#fcd462"/>
    <rect id="シェイプ_151" data-name="シェイプ 151" width="11.99" height="27.98" transform="translate(397 1491.84)" fill="#e56353"/>
    <path id="シェイプ_152" data-name="シェイプ 152" d="M408.991,1519.823H397l11.995-27.979Z" fill="#d15241"/>
    <path id="シェイプ_153" data-name="シェイプ 153" d="M408.991,1485.44H397l11.995-10.962Z" fill="#f6c358"/>
  </g>
</svg>
