<svg xmlns="http://www.w3.org/2000/svg" width="88.313" height="91.009" viewBox="0 0 88.313 91.009">
  <g id="グループ_9" data-name="グループ 9" transform="translate(-1079.687 -1434.218)">
    <path id="シェイプ_169" data-name="シェイプ 169" d="M1094.87,1491.534l-.011,0a3.3,3.3,0,0,0-4.185,1.989l-2.954,11.456a3.152,3.152,0,0,0-.171,1.034c0,.052-.016.1-.016.154l.008.067c0,.033.009.063.012.094l1.006,8.35a3.268,3.268,0,0,0,3.281,3.256h.01a3.271,3.271,0,0,0,3.292-3.234l-1.006-8.357,2.75-10.671A3.229,3.229,0,0,0,1094.87,1491.534Z" fill="#5f6e9b"/>
    <path id="シェイプ_168" data-name="シェイプ 168" d="M1088.549,1497l-1.967-21.067a3.809,3.809,0,0,1,3.508-4.112l7.069-.628a3.849,3.849,0,0,1,4.21,3.423l1.967,21.067L1088.548,1497Z" fill="#64afff"/>
    <path id="シェイプ_170" data-name="シェイプ 170" d="M1086.2,1499.024a2.834,2.834,0,0,1-.842-3.841l5.123-8.361.256-3,2.918-1.914,2.457,2.48-.31,3.592a2.873,2.873,0,0,1-.407,1.24l-5.473,8.93a2.679,2.679,0,0,1-2.285,1.3A2.625,2.625,0,0,1,1086.2,1499.024Zm-.4-36.074a5.9,5.9,0,1,1,5.9,6.08A5.992,5.992,0,0,1,1085.8,1462.95Z" fill="#ffb69e"/>
    <path id="シェイプ_171" data-name="シェイプ 171" d="M1095.9,1485.7l.655-7.806a2.762,2.762,0,0,0-2.415-3.03,2.7,2.7,0,0,0-2.879,2.538l-.651,7.729Z" fill="#4699f2"/>
    <path id="シェイプ_160" data-name="シェイプ 160" d="M1168,1501.639A12.372,12.372,0,0,1,1155.613,1514h-43.224A12.375,12.375,0,0,1,1100,1501.639v-42.288a12.374,12.374,0,0,1,12.388-12.358h43.224A12.371,12.371,0,0,1,1168,1459.351Z" fill="#e64937"/>
    <path id="シェイプ_161" data-name="シェイプ 161" d="M1156.1,1484H1111.88a3.9,3.9,0,0,1-3.892-3.9v-19.214a3.894,3.894,0,0,1,3.892-3.9H1156.1a3.893,3.893,0,0,1,3.893,3.9V1480.1A3.9,3.9,0,0,1,1156.1,1484Z" fill="#6ee1ff"/>
    <path id="シェイプ_162" data-name="シェイプ 162" d="M1128.967,1484l19.786-27h7.132l-19.787,27Zm-15.195,0a3.954,3.954,0,0,1-1.868-.465l19.446-26.539h13.9l-19.786,27Z" fill="#fff"/>
    <path id="シェイプ_163" data-name="シェイプ 163" d="M1144.717,1440.334h-20.471a3.064,3.064,0,1,1,0-6.116h20.471a3.064,3.064,0,1,1,0,6.116Z" fill="#55696e"/>
    <path id="シェイプ_164" data-name="シェイプ 164" d="M1108.99,1500.1a5.753,5.753,0,1,1,5.75,5.92A5.837,5.837,0,0,1,1108.99,1500.1Zm40.5-.12a5.753,5.753,0,1,1,5.75,5.919A5.837,5.837,0,0,1,1149.49,1499.981Z" fill="#ffebb4"/>
    <path id="シェイプ_165" data-name="シェイプ 165" d="M1143.981,1513.993h-19.217a1.871,1.871,0,0,1-1.88-1.865v-4.267a1.871,1.871,0,0,1,1.88-1.865h19.217a1.871,1.871,0,0,1,1.88,1.865v4.267a1.87,1.87,0,0,1-1.88,1.864Z" fill="#c8462d"/>
    <path id="シェイプ_166" data-name="シェイプ 166" d="M1150.4,1525.227l-3.057-7.09h9.565l3.058,7.09Zm-41.447,0,3.057-7.09h9.566l-3.058,7.09Z" fill="#373c41"/>
    <path id="シェイプ_167" data-name="シェイプ 167" d="M1100.641,1524.912c0-.016.01-3.489.01-3.5V1518.2a1.321,1.321,0,0,0-1.336-1.3h-19.628v8.016Z" fill="#a5c8cd"/>
  </g>
</svg>
