<svg xmlns="http://www.w3.org/2000/svg" width="126.518" height="76.181" viewBox="0 0 126.518 76.181">
  <g id="グループ_6" data-name="グループ 6" transform="translate(-687.045 -1445.179)">
    <path id="シェイプ_132" data-name="シェイプ 132" d="M792.933,1480.267l-3.236-26.423-6.065.751,0-.005-11.757-6.649a7.03,7.03,0,0,0-4.127-.883l-18.563,1.722a7.081,7.081,0,0,0-5.473,3.513l-13.084,22.635a3.133,3.133,0,0,0,1.59,4.5l.536.205a11.645,11.645,0,0,0,3.147.7l-1.659,1.45-3.316,2.9-9.434,8.089a4.065,4.065,0,0,0-.39,5.717l.956,1.1a5.163,5.163,0,0,0,7.307.5l3.6,4.156a5.154,5.154,0,0,0,7.307.5l3.6,4.156a5.167,5.167,0,0,0,7.312.5l1.956,1.7a5.164,5.164,0,0,0,7.31.506l2.661-2.333,22.369-17.509.025-.022,8.825-.008Z" fill="#f29f5c"/>
    <path id="シェイプ_140" data-name="シェイプ 140" d="M782.056,1486.919l-.023.024L759.82,1504.59l-2.642,2.353a5.078,5.078,0,0,1-7.261-.508l-1.942-1.714a5.08,5.08,0,0,1-7.261-.508l-3.577-4.191a5.067,5.067,0,0,1-7.255-.506l-3.58-4.189a5.068,5.068,0,0,1-6.371.308,4.145,4.145,0,0,0,.318,4.936l.949,1.111a5.075,5.075,0,0,0,7.256.506l3.581,4.189a5.066,5.066,0,0,0,7.255.506l3.577,4.19a5.076,5.076,0,0,0,7.26.509l1.943,1.713a5.078,5.078,0,0,0,7.261.51l2.643-2.353,22.211-17.649.024-.023,8.764-.008-.97-8.036Z" fill="#d37d42"/>
    <path id="シェイプ_133" data-name="シェイプ 133" d="M785.168,1497.407l-11.935-10.359-3.318-2.88-2.375-2.059-10.211-8.859,1.18-10.106a6.975,6.975,0,0,0-5.034-7.535l-22.259-6.2a5.14,5.14,0,0,0-5.958,2.632l-2.8,5.5-12.015-.819-3.077,26.371-1.337,11.462,11.693.783.025.023,24.433,21.2,2.663,2.312a5.135,5.135,0,0,0,7.277-.543l3.563-4.162a5.137,5.137,0,0,0,7.279-.544l3.565-4.167a5.123,5.123,0,0,0,7.273-.539l3.568-4.168a5.132,5.132,0,0,0,7.272-.541l.947-1.1A4.057,4.057,0,0,0,785.168,1497.407Z" fill="#f9c295"/>
    <path id="シェイプ_134" data-name="シェイプ 134" d="M813.549,1497l-6.082-50.178a1.878,1.878,0,0,0-.7-1.25,1.824,1.824,0,0,0-1.361-.382l-14.225,1.778a6.844,6.844,0,0,0-5.875,7.641l4.884,40.292a6.8,6.8,0,0,0,6.7,6.018,6.651,6.651,0,0,0,.831-.051l14.223-1.778A1.867,1.867,0,0,0,813.549,1497Z" fill="#5c9cee"/>
    <path id="シェイプ_135" data-name="シェイプ 135" d="M813.5,1496.861l-.675-5.4a1.963,1.963,0,0,1-1.38.828l-15.107,1.828a7.228,7.228,0,0,1-7-3.339l.5,4.024a6.809,6.809,0,0,0,6.783,5.9,7.2,7.2,0,0,0,.84-.05l14.412-1.743A1.843,1.843,0,0,0,813.5,1496.861Z" fill="#3580d3"/>
    <circle id="シェイプ_136" data-name="シェイプ 136" cx="3.6" cy="3.6" r="3.6" transform="translate(798.44 1484.76)" fill="#fff"/>
    <path id="シェイプ_137" data-name="シェイプ 137" d="M709.623,1447.7l-14.318-1.755a1.869,1.869,0,0,0-1.37.378,1.841,1.841,0,0,0-.7,1.23l-6.122,49.486a1.848,1.848,0,0,0,1.615,2.06l14.318,1.754a7.2,7.2,0,0,0,.835.05,6.792,6.792,0,0,0,6.739-5.934l4.917-39.734A6.775,6.775,0,0,0,709.623,1447.7Z" fill="#ed5575"/>
    <path id="シェイプ_138" data-name="シェイプ 138" d="M687.059,1497.087l.667-5.447a1.936,1.936,0,0,0,1.365.834l14.935,1.844a6.909,6.909,0,0,0,.87.055,7.1,7.1,0,0,0,6.054-3.421l-.5,4.059a6.777,6.777,0,0,1-6.706,5.952,7.05,7.05,0,0,1-.831-.051l-14.247-1.759A1.85,1.85,0,0,1,687.059,1497.087Z" fill="#cc3a60"/>
    <circle id="シェイプ_139" data-name="シェイプ 139" cx="3.52" cy="3.52" r="3.52" transform="translate(695.53 1486.24)" fill="#fff"/>
    <path id="シェイプ_142" data-name="シェイプ 142" d="M785.121,1497.789l-3.651-3.1a4.164,4.164,0,0,1-.178,5.284l-1.009,1.151a5.481,5.481,0,0,1-2.753,1.694l-5.6-4.752a1.886,1.886,0,0,0-2.633.191,1.821,1.821,0,0,0,.195,2.592l2.163,1.836-2.932,3.348a5.463,5.463,0,0,1-2.009,1.439l-5.007-4.25a1.886,1.886,0,0,0-2.632.193,1.821,1.821,0,0,0,.195,2.592l1.27,1.078-3.373,3.856a5.563,5.563,0,0,1-7.76.567l-3.8,4.342A5.483,5.483,0,0,1,743,1517.5l1.617,1.374a5.238,5.238,0,0,0,7.309-.533l3.579-4.089a5.243,5.243,0,0,0,7.311-.534l3.58-4.095a5.223,5.223,0,0,0,.721.507c.067.04.139.071.208.109a5.215,5.215,0,0,0,.57.265c.034.013.067.035.1.047,0,0,0-.007,0-.011a5.271,5.271,0,0,0,1.171.29,5.219,5.219,0,0,0,4.531-1.737l3.583-4.093a5.176,5.176,0,0,0,.81.557c.15.085.307.142.461.211.118.052.231.117.352.161a.031.031,0,0,0,0-.009,5.224,5.224,0,0,0,5.68-1.453l.949-1.085A3.924,3.924,0,0,0,785.121,1497.789Z" fill="#e59f6a"/>
    <path id="シェイプ_141" data-name="シェイプ 141" d="M739.8,1520.424a4.56,4.56,0,0,1-.911-6.463,4.746,4.746,0,0,1-6.576.892,4.56,4.56,0,0,1-.908-6.462l3.688-4.788a4.748,4.748,0,0,1,6.576-.893,4.557,4.557,0,0,1,.916,6.452l.207-.266a4.75,4.75,0,0,1,6.577-.893,4.563,4.563,0,0,1,.911,6.464l-3.905,5.066a4.75,4.75,0,0,1-6.575.891Zm-14.974-11.142a4.562,4.562,0,0,1-.907-6.462,4.75,4.75,0,0,1-6.577.891,4.558,4.558,0,0,1-.906-6.462l1.435-1.866a4.752,4.752,0,0,1,6.579-.893,4.56,4.56,0,0,1,.912,6.457l1.266-1.642a4.748,4.748,0,0,1,6.576-.891,4.56,4.56,0,0,1,.908,6.463l-2.706,3.514a4.752,4.752,0,0,1-6.579.891Z" fill="#f29f5c"/>
    <path id="シェイプ_143" data-name="シェイプ 143" d="M780.943,1457.568l-11.75-6.584a7.091,7.091,0,0,0-4.126-.875l-18.554,1.706a7.085,7.085,0,0,0-5.47,3.48l-13.077,22.417a3.092,3.092,0,0,0,1.589,4.454l.535.2a11.666,11.666,0,0,0,13.331-3.779l5.01-6.493s12.043,13.886,25.306-2.332" fill="#f29f5c"/>
  </g>
</svg>
