<svg xmlns="http://www.w3.org/2000/svg" width="94.224" height="97.587" viewBox="0 0 94.224 97.587">
  <g id="グループ_4" data-name="グループ 4" transform="translate(-326.999 -812.026)">
    <path id="シェイプ_118" data-name="シェイプ 118" d="M402.839,880.827l-.323-.091c-4.695-1.238-2.5-2.428-4.59-3.211-7.419-2.778-9.348-4.776-9.843-5.721-.015-.033-.027-.071-.042-.1h-35.3c-.017.034-.029.072-.047.1-.493.946-2.424,2.943-9.84,5.721-2.089.783-3.679,1.973-8.374,3.211l-.325.091a10.215,10.215,0,0,0-7.151,9.68v12.22h82.993v-12.22A10.22,10.22,0,0,0,402.839,880.827Z" fill="#434a54"/>
    <path id="シェイプ_124" data-name="シェイプ 124" d="M377.467,870.267l-15.178-2.287L355.9,881.313l14.076,22.658,13.891-20.832Z" fill="#ccd1d9"/>
    <path id="シェイプ_116" data-name="シェイプ 116" d="M374.309,881.827h-8.02l-2.518,9.536L370.3,902.8l6.424-11.442Z" fill="#da4453"/>
    <path id="シェイプ_115" data-name="シェイプ 115" d="M375.517,877.048l-4.249-7.189a1.815,1.815,0,0,0-3.261.236l-3.113,7.421a1.913,1.913,0,0,0-.154.753v4.715a1.873,1.873,0,0,0,1.842,1.9h7.367a1.868,1.868,0,0,0,1.838-1.9v-4.945A1.93,1.93,0,0,0,375.517,877.048Z" fill="#ed5564"/>
    <path id="シェイプ_114" data-name="シェイプ 114" d="M356.814,883.166l13.294-7.316,14,7.721s3.869-10.405,3.6-10.931c-.015-.034-.028-.073-.042-.108l-.063-8.726-17.639-.2-17.637.2-.061,8.726c-.017.035-.03.075-.047.108C351.988,873.095,356.814,883.166,356.814,883.166Z" fill="#e6e9ed"/>
    <path id="シェイプ_117" data-name="シェイプ 117" d="M387.879,871.7,393,877.586l-5.725,4.356,1.023,4.184-17.782,16.6Zm-35.185,14.428,1.026-4.184-5.732-4.356,4.879-5.888,17.647,31.028Z" fill="#656d78"/>
    <path id="シェイプ_113" data-name="シェイプ 113" d="M394.973,845.347c0,15.917-15.169,30.567-24.492,30.567s-24.493-14.649-24.493-30.567,10.969-26.419,24.493-26.419S394.973,829.428,394.973,845.347Z" fill="#eac6bb"/>
    <path id="シェイプ_111" data-name="シェイプ 111" d="M386.629,817.02c-4.171-3.723-18.646-9.076-32.069,0-10.586,7.159-9.518,25.207-9.518,25.207s13.893,3.464,29.805-5.508c10.284-5.8,13.869.1,15.711,5.236,1.8,5,5.41,3.736,5.41,3.736S399.958,828.934,386.629,817.02Z" fill="#965353"/>
    <path id="シェイプ_112" data-name="シェイプ 112" d="M381.855,833.964a6.781,6.781,0,0,1,3.628.847c1.934-7.19,5.74-9.123,7.4-9.636a29.365,29.365,0,0,0-1.9-3.343C388.266,822.929,383.975,825.91,381.855,833.964Z" fill="#7f4242"/>
    <path id="シェイプ_119" data-name="シェイプ 119" d="M408.6,909.391l-4.909-2.974a1.522,1.522,0,0,0-1.575,0l-4.908,2.974a1.5,1.5,0,0,1-2.289-1.261V888.994h15.972V908.13a1.5,1.5,0,0,1-2.291,1.261Z" fill="#e8ae4d"/>
    <path id="シェイプ_120" data-name="シェイプ 120" d="M406.637,862.016a3.963,3.963,0,0,0,4.25,1.385,3.972,3.972,0,0,1,5.08,3.7,3.977,3.977,0,0,0,2.627,3.624,3.983,3.983,0,0,1,1.939,5.986,3.987,3.987,0,0,0,0,4.481,3.983,3.983,0,0,1-1.939,5.986,3.98,3.98,0,0,0-2.627,3.626,3.973,3.973,0,0,1-5.08,3.7,3.964,3.964,0,0,0-4.25,1.383,3.962,3.962,0,0,1-6.277,0,3.968,3.968,0,0,0-4.252-1.383,3.972,3.972,0,0,1-5.078-3.7,3.983,3.983,0,0,0-2.627-3.626,3.983,3.983,0,0,1-1.941-5.986,3.987,3.987,0,0,0,0-4.481,3.983,3.983,0,0,1,1.941-5.986,3.98,3.98,0,0,0,2.627-3.624,3.97,3.97,0,0,1,5.078-3.7,3.967,3.967,0,0,0,4.252-1.385A3.962,3.962,0,0,1,406.637,862.016Z" fill="#ffe07d"/>
    <path id="シェイプ_121" data-name="シェイプ 121" d="M420.5,881.193a4.043,4.043,0,0,1,0-4.481,4.01,4.01,0,0,0-1.907-5.986,3.972,3.972,0,0,1-2.583-3.624,3.917,3.917,0,0,0-4.995-3.7,3.862,3.862,0,0,1-4.179-1.383,3.855,3.855,0,0,0-6.172,0,4.036,4.036,0,0,1-.754.755,17.924,17.924,0,0,1,0,32.361,4,4,0,0,1,.754.753,3.854,3.854,0,0,0,6.172,0,3.861,3.861,0,0,1,4.179-1.383,3.918,3.918,0,0,0,4.995-3.7,3.976,3.976,0,0,1,2.583-3.626A4.01,4.01,0,0,0,420.5,881.193Z" fill="#ffd064"/>
    <circle id="シェイプ_122" data-name="シェイプ 122" cx="9.52" cy="9.52" r="9.52" transform="translate(393.76 870.23)" fill="#e8ae4d"/>
    <path id="シェイプ_123" data-name="シェイプ 123" d="M412.987,879.605a9.887,9.887,0,0,0-5.908-8.983,17.526,17.526,0,0,1,0,17.968A9.888,9.888,0,0,0,412.987,879.605Z" fill="#e5a32e"/>
  </g>
</svg>
