<svg xmlns="http://www.w3.org/2000/svg" width="98.014" height="85.269" viewBox="0 0 98.014 85.269">
  <g id="グループ_5" data-name="グループ 5" transform="translate(-701.608 -814.488)">
    <path id="シェイプ_127" data-name="シェイプ 127" d="M758.755,899.757a1.952,1.952,0,0,1-1.97-1.931v-24.1h24.179v24.1a1.951,1.951,0,0,1-1.971,1.931Zm-34.808,0a1.951,1.951,0,0,1-1.97-1.931v-24.1h24.179v24.1a1.952,1.952,0,0,1-1.971,1.931Z" fill="#ffcec0"/>
    <path id="シェイプ_131" data-name="シェイプ 131" d="M784.469,860.532l5.6-15.1a4.82,4.82,0,0,1,6.144-2.813,4.682,4.682,0,0,1,2.863,6.035l-5.6,15.1ZM701.9,848.649a4.685,4.685,0,0,1,2.865-6.035,4.82,4.82,0,0,1,6.144,2.813l5.6,15.1-9.01,3.22Z" fill="#fdb0a0"/>
    <path id="シェイプ_130" data-name="シェイプ 130" d="M713.339,870v-7.525l-2.083.761L705.7,847.924a4.762,4.762,0,0,0-2.714-2.805,4.746,4.746,0,0,1,8.651.634l4.61,12.711h72.213V870Zm75.738-7.3,5.555-15.312a4.78,4.78,0,0,0-.827-4.7,4.7,4.7,0,0,1,2.452.213,4.781,4.781,0,0,1,2.844,6.117l-5.554,15.313Z" fill="#f69583"/>
    <path id="シェイプ_125" data-name="シェイプ 125" d="M787.938,858.269A25.579,25.579,0,0,0,787.915,822a25.863,25.863,0,0,0-35.141-1.219,1.978,1.978,0,0,1-2.58,0A25.862,25.862,0,0,0,715.055,822a25.579,25.579,0,0,0-.022,36.266l35.2,35.042a1.772,1.772,0,0,0,2.5,0Z" fill="#fb4a59"/>
    <path id="シェイプ_126" data-name="シェイプ 126" d="M787.982,858.365l-35.1,34.942a1.768,1.768,0,0,1-2.5,0L746,888.937l33.525-33.374a25.564,25.564,0,0,0-5.955-40.573,25.572,25.572,0,0,1,14.412,43.375Z" fill="#f82f40"/>
    <path id="シェイプ_129" data-name="シェイプ 129" d="M771.925,890.124l-3.884-.76a1.526,1.526,0,0,1-1.2-1.793l1.032-5.332a18.263,18.263,0,0,1,15.278-14.621,1.526,1.526,0,0,0,1.279-1.223l2.445-12.659a4.927,4.927,0,0,1,6.494-3.722,5.027,5.027,0,0,1,3.16,5.713l-2.712,14-1.245,6.422a17.567,17.567,0,0,1-20.646,13.979Zm-63.5-13.979-1.246-6.422-2.711-14a5.028,5.028,0,0,1,3.16-5.713,4.927,4.927,0,0,1,6.494,3.722l2.444,12.659a1.527,1.527,0,0,0,1.279,1.223,18.263,18.263,0,0,1,15.279,14.621l1.032,5.332a1.527,1.527,0,0,1-1.2,1.793l-3.883.76a17.567,17.567,0,0,1-20.646-13.979Z" fill="#ffdfd0"/>
    <path id="シェイプ_128" data-name="シェイプ 128" d="M774.856,890.123l-1.844-.36a17.664,17.664,0,0,0,17.725-14.3l1.249-6.422,2.721-14a5.094,5.094,0,0,0-1.823-4.969,4.909,4.909,0,0,1,3.474-.057,5.023,5.023,0,0,1,3.168,5.712l-2.718,13.995-1.249,6.425a17.627,17.627,0,0,1-20.7,13.976Zm-43.52-5.782a18.287,18.287,0,0,0-15.321-14.621,1.529,1.529,0,0,1-1.281-1.223l-2.453-12.659a4.946,4.946,0,0,0-4.28-3.98,4.856,4.856,0,0,1,2.379-1.843,4.942,4.942,0,0,1,6.514,3.722l2.452,12.659a1.531,1.531,0,0,0,1.282,1.223,18.287,18.287,0,0,1,15.321,14.621l1.037,5.327a1.531,1.531,0,0,1-1.209,1.8l-3.336.652Z" fill="#ffcec0"/>
  </g>
</svg>
