<svg xmlns="http://www.w3.org/2000/svg" width="170.007" height="41.006" viewBox="0 0 170.007 41.006">
  <g id="MENU_背景無し_" data-name="MENU（背景無し）" transform="translate(-354.993 -9.994)">
    <path id="コンシェルジュ" d="M496.447,23.136a.938.938,0,0,1,.316-.656c1-1.15,1.17-1.656,1.17-4.444V15.82c0-.37.116-.772.833-.772.558,0,.864.212.864.772v2.291c0,2.28-.105,3.811-1.212,5.236-.548.7-.8.7-.98.7A.985.985,0,0,1,496.447,23.136Zm11.3-.085a.811.811,0,0,1,.79-.8c1.7-.3,3.658-.729,5-2.914a11.256,11.256,0,0,0,.959-2.027c.2-.495.421-.549.748-.549.158,0,.917.137.917.728a9,9,0,0,1-2.414,4.255A9,9,0,0,1,508.578,24C507.83,24,507.746,23.252,507.746,23.052Zm-29.281,0a.811.811,0,0,1,.79-.8c1.7-.3,3.657-.729,5-2.914a11.207,11.207,0,0,0,.958-2.027c.2-.495.422-.549.749-.549.158,0,.916.137.916.728a9,9,0,0,1-2.413,4.255A9,9,0,0,1,479.3,24C478.549,24,478.465,23.252,478.465,23.052Zm22.292-.1V15.693c0-.412.158-.76.832-.76.527,0,.854.19.854.76v5.975c0,.138,0,.253.116.253.41,0,1.444-.833,1.928-2.334.169-.527.274-.823.77-.823.19,0,.939.1.939.751a5.426,5.426,0,0,1-.886,2.227,4.958,4.958,0,0,1-3.562,2.227A.891.891,0,0,1,500.757,22.955ZM468.03,22.9c0-.633.38-.76.939-.833A6.542,6.542,0,0,0,475,17.182c.231-.676.305-.886.779-.886a1.086,1.086,0,0,1,.285.031.784.784,0,0,1,.685.75,9.007,9.007,0,0,1-2.013,4.012,8,8,0,0,1-4.036,2.448,9.688,9.688,0,0,1-1.813.349A.881.881,0,0,1,468.03,22.9Zm49.909.781a.765.765,0,0,1,0-1.531h3.573c.179-1.183.305-3.05.305-3.188,0-.19-.073-.274-.263-.274h-2.783a.766.766,0,1,1,0-1.531h3.667a.981.981,0,0,1,1.076,1.119c0,.348-.137,1.965-.39,3.874h1.106a.684.684,0,0,1,.769.761.677.677,0,0,1-.769.77Zm-29.26-.011a.691.691,0,0,1-.79-.749c0-.644.421-.76.79-.76h2.266V18.68h-1.813a.761.761,0,1,1,0-1.52h5.227a.761.761,0,1,1,0,1.52h-1.813v3.484h2.266a.755.755,0,1,1,0,1.509Zm-29.924-.211a.828.828,0,1,1,0-1.657h5.186a.316.316,0,0,0,.347-.349V17.6a.316.316,0,0,0-.347-.348h-5.059a.746.746,0,0,1-.833-.824.739.739,0,0,1,.833-.823h5.755c.938,0,1.433.337,1.433,1.446v4.962c0,1.087-.474,1.446-1.433,1.446ZM509.3,19.842c-.254-.117-1.391-.528-1.613-.624a.7.7,0,0,1-.517-.654c0-.222.116-.877.748-.877a6.729,6.729,0,0,1,1.634.475c1.338.517,1.538.687,1.538,1.151,0,.38-.253.919-.77.919C510.138,20.233,510.086,20.2,509.3,19.842Zm-29.282,0c-.253-.117-1.391-.528-1.613-.624a.7.7,0,0,1-.516-.654c0-.222.115-.877.748-.877a6.711,6.711,0,0,1,1.633.475c1.338.517,1.539.687,1.539,1.151,0,.38-.253.919-.77.919C480.857,20.233,480.8,20.2,480.014,19.842ZM470.307,18.1c-.643-.443-1.517-.929-1.929-1.15-.284-.148-.633-.328-.633-.771a.99.99,0,0,1,.644-.886.6.6,0,0,1,.2-.031,4.9,4.9,0,0,1,1.36.571c1.886.982,2.034,1.245,2.034,1.647,0,.347-.369.982-.875.982C470.907,18.46,470.759,18.417,470.307,18.1Zm39.916-.992c-.284-.127-.527-.232-1.222-.476-.538-.19-.917-.327-.917-.823,0-.242.126-.877.737-.877a9.506,9.506,0,0,1,2.109.676c.759.317,1.075.464,1.075.96a.866.866,0,0,1-.78.909C511.055,17.478,511.013,17.467,510.223,17.108Zm-29.281,0c-.285-.127-.527-.232-1.223-.476-.537-.19-.917-.327-.917-.823,0-.242.127-.877.738-.877a9.48,9.48,0,0,1,2.108.676c.759.317,1.076.464,1.076.96a.866.866,0,0,1-.78.909C481.775,17.478,481.732,17.467,480.942,17.108ZM514.544,16c-.021-.074-.126-.432-.148-.507s-.148-.4-.168-.464a.7.7,0,0,1-.031-.2c0-.285.327-.337.41-.337.2,0,.306.148.422.443a3.458,3.458,0,0,1,.264.971.373.373,0,0,1-.411.37C514.733,16.274,514.617,16.211,514.544,16Zm1.076-.58c-.022-.074-.148-.4-.169-.475a.549.549,0,0,1-.031-.179c0-.285.306-.338.411-.338.221,0,.305.148.411.412a3.388,3.388,0,0,1,.274.993c0,.369-.38.369-.411.369C515.85,16.2,515.84,16.126,515.619,15.419Z" fill="#333"/>
    <path id="相続" d="M443.95,27.806c0-.369.143-.472,1.207-1.7a6.716,6.716,0,0,0,1.166-3.116c.021-.246.062-1.414.1-1.66a.9.9,0,0,1,.88-.717H446.1c-.347,0-.389.082-.389.391,0,1.639,0,2.11-.9,2.11s-.9-.655-.9-1.762a2.13,2.13,0,0,1-.8.164,1.32,1.32,0,0,1,.184.472c.123.554.737,3.238.737,3.464a1,1,0,0,1-.962.942,1.124,1.124,0,0,1-1-.819,27.448,27.448,0,0,1-.553-3.525.87.87,0,0,1,.839-.943,1.7,1.7,0,0,1-.225-.717c-.143.021-.818.082-.941.1v6.641c0,.861,0,1.64-1.1,1.64-1.208,0-1.208-.655-1.208-1.64V20.611a21.7,21.7,0,0,1-2.373-.061c-.594-.082-.819-.595-.819-1.148,0-1.189.655-1.167,2.21-1.147.122-.185.328-.492.8-1.292-.429-.41-2.741-2.3-2.823-2.378a1,1,0,0,1-.368-.8,1.208,1.208,0,0,1,1.228-1.21.952.952,0,0,1,.409.082c1.31-2.358,1.535-2.665,2.19-2.665a1.083,1.083,0,0,1,1.126,1.148c0,.329,0,.513-1.473,2.931.45.369.654.554.859.738.225-.43,1.228-2.665,1.268-2.747a.957.957,0,0,1,.778-.41c.389,0,1.372.369,1.372,1.106,0,.841-2.312,5.022-2.558,5.452.164-.021.879-.061,1.023-.061-.021-.143-.164-.779-.164-.923a1.007,1.007,0,0,1,1.085-.963c.9,0,1.166,1.025,1.494,2.563a1.379,1.379,0,0,1,1.329-.534h6.794c.716,0,1.944,0,1.944,1.454v1.517c0,.8,0,1.579-.818,1.579-.84,0-.84-.759-.84-1.148,0-.307,0-.881-.02-.943-.041-.143-.164-.143-.471-.143h-1.208c.921.1.921.738.921,1.62v3.484c0,.349.021.349.409.349.368,0,.389-.123.45-1.128a.993.993,0,0,1,1.985.061,9.858,9.858,0,0,1-.471,2.645,1.911,1.911,0,0,1-1.6,1.024h-1.289c-1.76,0-1.78-1.333-1.78-2.03V22.231c0-.86,0-1.517.9-1.62h-2.6c.921.082.941.9.941,1.271,0,3.955-2.354,7.01-3.6,7.01A1.007,1.007,0,0,1,443.95,27.806Zm-26.088-.636V21.328a11.365,11.365,0,0,1-.879,1.415.916.916,0,0,1-.9.491,1.171,1.171,0,0,1-1.228-1.229c0-.267.021-.513.716-1.517a21.689,21.689,0,0,0,2.23-4.529h-.839c-.859,0-1.637,0-1.637-1.087,0-1.209.675-1.209,1.637-1.209h.9v-1.8c0-.861,0-1.64,1.105-1.64,1.248,0,1.248.635,1.248,1.64v1.8h.471c.839,0,1.637,0,1.637,1.086,0,1.21-.675,1.21-1.637,1.21h-.471v1.332a11.935,11.935,0,0,0,1.822,2.274c.471.493.593.759.593,1.067a1.093,1.093,0,0,1-1.023,1.229c-.553,0-.7-.164-1.391-.984V27.17c0,1.046-.021,1.641-1.085,1.641C417.862,28.811,417.862,28.2,417.862,27.17Zm6.63,1.189a1.791,1.791,0,0,1-1.658-1.948V12.659a1.822,1.822,0,0,1,1.658-1.948h7.08a1.729,1.729,0,0,1,1.555,1.948V26.411c0,1.067-.471,1.948-1.555,1.948Zm.737-2.705a.374.374,0,0,0,.389.39h4.624a.374.374,0,0,0,.389-.39V22.908h-5.4Zm0-5.1h5.4V17.8h-5.4Zm0-7.194v2.069h5.4V13.356a.373.373,0,0,0-.389-.39h-4.624A.373.373,0,0,0,425.229,13.356ZM435.5,26.474c0-.493.593-2.6.654-3.035.061-.369.164-1.25.246-1.517a1.057,1.057,0,0,1,.962-.573,1.087,1.087,0,0,1,1,1.21,28.205,28.205,0,0,1-.819,4.263,1.023,1.023,0,0,1-.818.677,1.155,1.155,0,0,1-.214.02A1,1,0,0,1,435.5,26.474Zm10.62-9.142c-.778,0-1.7,0-1.7-1.168,0-1.19.921-1.19,1.7-1.19h1.8V13.867h-2.538c-.778,0-1.636,0-1.636-1.148s.859-1.148,1.636-1.148h2.538c0-.8,0-1.556,1.105-1.556.839,0,1.31.225,1.31,1.188v.368h2.517c.778,0,1.637,0,1.637,1.148s-.859,1.148-1.637,1.148h-2.517v1.107h1.658c.778,0,1.7,0,1.7,1.19,0,1.168-.921,1.168-1.7,1.168Z" fill="#bb284d"/>
    <path id="国分寺" d="M376.272,27.6c0-.676.143-.757,1.658-1.7a8.285,8.285,0,0,0,2.987-3.424,9.743,9.743,0,0,0,.859-3.2h-1.984c-.982,0-1.6,0-1.637-1.147-1.269,1.107-1.74,1.107-2.047,1.107a1.355,1.355,0,0,1-1.33-1.333c0-.615.184-.759,1.9-2.05a11.653,11.653,0,0,0,3.335-4.406c.185-.43.471-1.046,1.187-1.046a1.307,1.307,0,0,1,1.35,1.23c0,1.6-2.8,4.919-3.048,5.165h10.027a17.5,17.5,0,0,1-2.927-3.811.68.68,0,0,0-.757-.432h-.982c-.737,0-1.719,0-1.719-1.229s.982-1.229,1.719-1.229h1.35c1.617,0,1.658.041,2.353,1.045,2.047,2.952,2.415,3.485,4.646,5.268a1.457,1.457,0,0,1,.675,1.168,1.407,1.407,0,0,1-1.29,1.373,2.656,2.656,0,0,1-1.411-.655,30.725,30.725,0,0,1,.143,3.136c0,5.472-.8,7.481-4.154,7.481a12.629,12.629,0,0,1-3.07-.43,1.108,1.108,0,0,1-.593-1.087c0-.39.225-1.373,1.085-1.373.205,0,1.965.368,2.333.368a1.414,1.414,0,0,0,1.555-1.024,25.8,25.8,0,0,0,.389-5.1c0-.778,0-.984-.553-.984h-4.134a11.548,11.548,0,0,1-4.706,8.834,3.712,3.712,0,0,1-1.923.882A1.4,1.4,0,0,1,376.272,27.6Zm28.339.759a1.061,1.061,0,0,1-.737-1.066,1.178,1.178,0,0,1,1.065-1.229c.143,0,.921.163,1.085.184a5.713,5.713,0,0,0,.961.081c.9,0,.941-.307.941-.881V22.005h-7.387c1.023,1.025,2.394,2.439,2.394,3.258a1.391,1.391,0,0,1-1.35,1.252c-.451,0-.634-.205-2.21-2.029-.921-1.066-1.023-1.19-1.023-1.62a1.344,1.344,0,0,1,.348-.86h-1c-.941,0-1.637,0-1.637-1.168,0-1.087.8-1.087,1.637-1.087h10.231V18.008H397.2c-.941,0-1.658,0-1.658-1.21,0-1.025.819-1.045,1.637-1.045h6.282V14.236h-4.992c-.941,0-1.637,0-1.637-1.189,0-1.065.8-1.065,1.637-1.065h4.992c0-1.148,0-1.825,1.372-1.825,1.269,0,1.269.779,1.269,1.825h5.116c.962,0,1.637,0,1.637,1.168,0,1.085-.8,1.085-1.637,1.085h-5.116v1.517h6.385c.921,0,1.637.02,1.637,1.168,0,1.086-.819,1.086-1.637,1.086h-2.026V19.75h1.678c.921,0,1.637,0,1.637,1.148,0,1.107-.7,1.107-1.637,1.107h-1.678V25.53c0,2.193-.389,3.26-3.009,3.26A8.821,8.821,0,0,1,404.611,28.359Zm-47.306-.021A2.057,2.057,0,0,1,354.993,26V12.924a2.046,2.046,0,0,1,2.312-2.336h13.179a2.05,2.05,0,0,1,2.312,2.336V26a2.049,2.049,0,0,1-2.312,2.336Zm.225-14.41v11.09c0,.861.246,1,.921,1h10.867c.675,0,.921-.122.921-1V13.928c0-.881-.225-1.024-.921-1.024H358.451C357.776,12.9,357.53,13.047,357.53,13.928Zm1.965,11.11c-.8,0-1.637,0-1.637-1.106,0-1.086.839-1.086,1.637-1.086h3.172V20.16h-2.6c-.819,0-1.637,0-1.637-1.046s.818-1.045,1.637-1.045h2.6V16h-3.008c-.778,0-1.637,0-1.637-1,0-1.107.859-1.107,1.637-1.107h8.451c.778,0,1.637,0,1.637,1.107,0,1-.859,1-1.637,1h-3.069v2.07h2.66c.818,0,1.637,0,1.637,1.045s-.819,1.046-1.637,1.046h-2.66v2.686h1.984C366.146,21.9,366,21.677,366,21.267c0-.676.737-.943,1.105-.943.614,0,.839.247,1.678,1.168a1.611,1.611,0,0,1,.409.841.837.837,0,0,1-.2.532.962.962,0,0,1,.921,1.087c0,1.085-.859,1.085-1.637,1.085Z" fill="#333"/>
    <path id="長方形_4" data-name="長方形 4" d="M364,33H516a9,9,0,1,1,0,18H364a9,9,0,1,1,0-18Z" fill="#f57679"/>
    <text id="運営_税理士事務所グレイス" data-name="運営：税理士事務所グレイス" transform="translate(440 46)" fill="#fff" font-size="10" font-family="SourceHanSansJP-Regular, Source Han Sans JP"><tspan x="-64.85" y="0">運営：税理士事務所</tspan><tspan y="0">グレイス</tspan></text>
  </g>
</svg>
