<svg xmlns="http://www.w3.org/2000/svg" width="301.01" height="51.981" viewBox="0 0 301.01 51.981">
  <path id="グレイス" d="M491.317,4399.608c5.643,3.461,8.414,6,10.691,8.965l-2.376,1.549a30.523,30.523,0,0,0-9.24-9.361,27.7,27.7,0,0,1-15.179,9.459l-.528-1.483a23,23,0,0,0,11.813-6.592c4.455-4.549,6.633-10.416,7.755-13.613l-11.714.2a38.872,38.872,0,0,0-5.214.4l-.066-2.143a36.1,36.1,0,0,0,5.247.231l8.909-.132a35.281,35.281,0,0,0,4.851-.429l1.419,1.384a4.453,4.453,0,0,0-.99,1.549C494.452,4394.73,493.891,4395.95,491.317,4399.608Zm-21.591-13.316a48.687,48.687,0,0,1-7.095,6.592v15.2c0,.989.132,3.362.231,4.285H460.09c.1-1.813.165-3.461.165-4.153v-13.646a40.824,40.824,0,0,1-13.826,5.636l-.561-1.417c8.348-1.978,15.344-5.7,22.274-15.129l2.277,1.483c.1.066.363.264.363.428a.26.26,0,0,1-.165.264A4.477,4.477,0,0,0,469.726,4386.292Zm-20.066,36.961h-3.876v3.029h3.747v1.229h-3.747v5.286H444.44v-10.771h5.22Zm-26.241-11.944-1.815-1.549c.132-.791.33-2.571.33-3.1v-18.821a24.5,24.5,0,0,0-.3-3.065l2.706.1c.429,0,.693.066.693.33,0,.1,0,.165-.165.33a1.367,1.367,0,0,0-.462,1.154v21.392c13.463-2.439,16.466-10.746,17.522-13.646l1.32.692c-1.584,4.186-4.224,10.58-14.255,14.3C428.2,4409.728,424.211,4410.815,423.419,4411.31Zm-5.342,21.487h-1.344v-9.543h-2.56v-1.229h6.465v1.229h-2.56Zm-3.71-50,1.089-.791a22.557,22.557,0,0,1,3.465,3.4l-1.683,1.121A22.835,22.835,0,0,0,414.368,4382.8Zm-.2,5.472a24.127,24.127,0,0,0-3-4.153l1.089-.692a18.632,18.632,0,0,1,3.564,3.725Zm-1.452.561,1.617,1.714a3.51,3.51,0,0,0-.2.362c-.363.857-1.551,5.142-1.914,6.1-4.686,12.987-14.552,14.272-21.152,14.767l-.1-1.549c3.465-.2,10.262-.626,15.476-7.383a25.935,25.935,0,0,0,4.752-12.1H398.892a19.2,19.2,0,0,1-9.009,8.471l-.792-1.285c1.914-.89,6.5-3.033,9.107-11.9a11.933,11.933,0,0,0,.462-2.109l2.442.791c.1.033.561.165.561.363a.335.335,0,0,1-.231.33.949.949,0,0,0-.561.692c-.594,1.648-.858,2.307-1.221,3.131h7.557A47.675,47.675,0,0,0,412.718,4388.831Zm-18.743,34.423h-2.56v9.543H390.07v-9.543h-2.56v-1.229h6.465ZM378.5,4432.8h-1.344V4421.51l8.1,8.472v-7.958h1.344v11.214l-8.1-8.472Zm-1.635-23.651h-1.629v-11.721h-3.456v.594c0,4.947-.749,8.268-4.095,10.907l-.881-.484c2.818-2.485,3.28-4.926,3.28-9.874V4390.3l1.475.308a14.072,14.072,0,0,0,6.164-1.319l.969,1.056c.11.131.154.176.154.219,0,.11-.088.044-.925.2a37.691,37.691,0,0,1-6.142.77v5.1h7.4v.792h-2.311Zm-17.326-18.933h9.026V4391h-9.026Zm.925,4.332h7.507v7.564h-5.834a10.237,10.237,0,0,1-2.554,6.707l-.881-.55a9.64,9.64,0,0,0,1.761-6.465Zm1.673,6.772h4.271v-5.981h-4.271Zm-5.165-1.231A14.465,14.465,0,0,1,352,4397.93a12.739,12.739,0,0,1-5.217,2.375l-.661-.682c2.906-.835,3.985-1.517,4.975-2.419a10.6,10.6,0,0,1-2.73-4.09,16.9,16.9,0,0,1-2,2.309l-.859-.352a14.171,14.171,0,0,0,3.214-6.113l1.915.638c.154.044.286.088.286.2,0,.176-.088.22-.462.417-.286.418-.528.792-.837,1.231h7.441v.792H355.32a9.628,9.628,0,0,1-2.444,4.882,11.723,11.723,0,0,0,4.579,2.265Zm-3.346-7.85h-4.579c-.2.242-.528.66-.55.7l1.387-.44a10.129,10.129,0,0,0,2.113,3.761A8.321,8.321,0,0,0,353.625,4392.235Zm-9.973,2.705-1.255,1.385a14.748,14.748,0,0,0-3.61-3.387l.506-.748a16.566,16.566,0,0,1,2.532,1.451,25.963,25.963,0,0,0,2.091-2.836h-6.3v-.792h8.718v.594c-1.541,1.561-1.541,1.561-3.654,3.584A12.117,12.117,0,0,1,343.652,4394.94Zm-6.67,1.407h10.391a23.207,23.207,0,0,1-2.906,4.266l-.815-.528a9.5,9.5,0,0,0,1.321-2.946h-2.224v10.137c0,1.056-.176,1.737-2,1.737h-1.893l-.4-.989a11.408,11.408,0,0,0,1.629.153c.947,0,1.079-.065,1.079-.857v-6.443a18.045,18.045,0,0,1-3.742,4.816l-.66-.55a17.6,17.6,0,0,0,4.293-8h-4.073Zm5.113,25.449a5.207,5.207,0,0,1,2.717.729v1.557a4.29,4.29,0,0,0-7.108,3.343,4.244,4.244,0,0,0,7.108,3.258v1.585a5.839,5.839,0,0,1-2.832.757,5.579,5.579,0,0,1-5.621-5.557A5.665,5.665,0,0,1,342.095,4421.8Zm-8.711,8.3h-4.949l-1.23,2.7H325.76l5.149-11.229,5.149,11.229h-1.444Zm-2.474-5.585-1.917,4.357h3.833Zm2.162-17.873H331.4v-.967h-5.482v1.385c0,1.319-.132,2.045-2.091,2.045h-2.334l-.4-1.055a8.316,8.316,0,0,0,2,.308c1.123,0,1.145-.572,1.145-1.385v-1.3h-7.089v-.792h7.089v-1.892h-9.18v-.792h9.18v-1.891h-7.089v-.792h7.089v-1.693h-6.648v-3.8h6.648v-1.781h-8.652v-.792h8.652v-1.253a2.251,2.251,0,0,0-.286-1.122l1.959.088c.286.022.308.022.308.154a7.3,7.3,0,0,1-.308.879v1.253h8.806v.792h-8.806v1.781h6.538v3.8h-6.538v1.693h7.155v2.683h2.113v.792h-2.113Zm-8.828-11.831h-4.975v2.221h4.975Zm6.6,2.221v-2.221h-4.931v2.221Zm.55,3.276h-5.482v1.891H331.4Zm0,2.683h-5.482v1.892H331.4Zm-15.922,19.037,2.2,3.929,2.346-3.929h1.53l-3.1,5.128,3.275,5.643h-1.5l-2.546-4.414-2.646,4.414h-2.819l-1.23-2.7h-4.949l-1.23,2.7H303.36l5.149-11.229,5.094,11.109,3.317-5.523-2.975-5.128Zm-6.966,2.486-1.917,4.357h3.833Zm-4.555-17.1h7.573v.792H294.62v-.792h7.6v-9.456h-9.092v-.792h9.092v-6.487a5.084,5.084,0,0,0-.2-1.715l1.937.132c.286.022.4.044.4.154s-.044.176-.4.7v7.212h9.114v.792h-9.114Zm-26.673.11h6.626v-3.87h-4.4v-.792h4.4v-3.408h-4.4v-9.39h10.611v9.39H285.6v3.408h4.513v.792H285.6v3.87h5.46v.792H277.281Zm6.626-16.668h-2.642v3.5h2.642Zm0,4.288h-2.642v3.518h2.642Zm1.7,3.518h2.708v-3.518H285.6Zm0-4.31h2.708v-3.5H285.6Zm-14.486,12.073c-.11,0-.132-.066-.2-.2l-.727-1.474c.682.022.991.022,3.853-.66v-6.553h-2.686v-.792h2.686v-5.893h-2.994v-.792h7.771v.792H275.74v5.893h2.488v.792H275.74v6.114c1.7-.462,2.422-.7,3.148-.946v.77c-1.123.484-6.252,2.2-7.287,2.573C271.271,4406.375,271.249,4406.418,271.116,4406.418Zm-5.385,1.473h.462c.66,0,1.145,0,1.585-2.683a5.315,5.315,0,0,0,1.563.7c-.594,2.617-1.629,2.771-2.906,2.771h-1.255c-1.607,0-1.915-.439-1.915-1.913v-5.211h-1.387c-.11,2.683-.55,5.673-5.922,7.455l-.528-.594c3.28-1.275,4.777-2.727,4.843-6.861h-1.937v-7.3h9.686v7.3h-3.126v5.432C264.895,4407.8,265.137,4407.892,265.731,4407.892Zm.638-7.125v-5.717h-6.384v5.717Zm-1.255-6.861-.771-.418a10.57,10.57,0,0,0,1.453-4.332l1.937.836c.132.066.242.11.242.22s0,.176-.55.528A22.168,22.168,0,0,1,265.115,4393.906Zm-6.318-4.288.66-.616a17.407,17.407,0,0,1,3.082,3.958l-1.453.945A13.5,13.5,0,0,0,258.8,4389.618Zm-1.585.879c-.4,0-2.135.264-2.488.308v3.628h2.752v.792h-2.708a10.988,10.988,0,0,0,2.422,5.454l-.616.506a13.2,13.2,0,0,1-1.849-2.441v10.4h-1.7v-10.071a13.27,13.27,0,0,1-3.654,5.124l-.55-.506c1.981-1.979,3.478-5.739,4.007-8.466h-3.765v-.792h3.963v-3.5c-.55.022-2.95.154-3.434.176l-.528-.792c1.893-.044,5.878-.308,7.243-1.275l1.167,1.012c.176.154.242.22.242.286C257.718,4390.5,257.454,4390.5,257.211,4390.5Zm-3.243,31.3a5.655,5.655,0,0,1,4.391,2.086l-.944.9a4.252,4.252,0,0,0-7.695,2.614,4.4,4.4,0,0,0,4.19,4.4,3.62,3.62,0,0,0,3.533-3.2h-2.789v-1.229h4.276v.429a5.006,5.006,0,0,1-5.106,5.229,5.616,5.616,0,0,1,.143-11.229ZM221,4433.989c-9.777,0-13.985-3.033-14.286-3.162l-.857-.589a2.009,2.009,0,0,1-.593-2.851l1.469-2.246a2.183,2.183,0,0,1,2.869-.454,22.425,22.425,0,0,0,11.009,2.565c4.606,0,10.658-3.056,10.658-7.485v-4.162a20.389,20.389,0,0,1-10.788,3.039c-10.758,0-19.479-8.126-19.479-18.151s8.721-18.151,19.479-18.151a20.3,20.3,0,0,1,11.889,3.778,2.215,2.215,0,0,1,2-1.22h1.7a2.166,2.166,0,0,1,2.209,2.122v7.3a2.166,2.166,0,0,1-2.209,2.122h-1.7a2.227,2.227,0,0,1-1.859-.978h0a18.452,18.452,0,0,0-1.905-2.455h-.007a13.257,13.257,0,0,0-10.114-4.554c-7.135,0-12.919,5.39-12.919,12.039s5.784,12.039,12.919,12.039a13.1,13.1,0,0,0,11.206-6.05h-5.4a2.167,2.167,0,0,1-2.209-2.122v-2.39a2.167,2.167,0,0,1,2.209-2.122h9.788a2.167,2.167,0,0,1,2.209,2.122v17.8C238.277,4429.124,228.824,4433.989,221,4433.989Zm43.743-11.464a2.981,2.981,0,0,1,1.416,2.571,2.934,2.934,0,0,1-2.589,3.015l3.352,4.614,5.116-11.158,5.149,11.229h-1.445l-1.23-2.7H269.56l-1.23,2.7h-2.99l-3.175-4.557h-.558v4.557h-1.344v-10.771h1.631A5.707,5.707,0,0,1,264.739,4422.525Zm9.212,6.343-1.917-4.357-1.917,4.357Zm-12.344-1.743h.429c1.373,0,2.861-.257,2.861-1.972,0-1.686-1.6-1.928-2.932-1.928h-.358Zm21.613-5.329a5.208,5.208,0,0,1,2.717.729v1.557a4.29,4.29,0,0,0-7.108,3.343,4.244,4.244,0,0,0,7.108,3.258v1.585a5.84,5.84,0,0,1-2.832.757,5.579,5.579,0,0,1-5.621-5.557A5.665,5.665,0,0,1,283.22,4421.8Zm10.113,1.457h-4.448v3.014H293.2v1.229h-4.319v4.071h4.448v1.229H287.54v-10.771h5.792Zm11.257,0h-2.56v9.543h-1.344v-9.543h-2.56v-1.229h6.465Zm46.96-1.457a5.207,5.207,0,0,1,2.717.729v1.557a4.29,4.29,0,0,0-7.108,3.343,4.244,4.244,0,0,0,7.108,3.258v1.585a5.839,5.839,0,0,1-2.832.757,5.579,5.579,0,0,1-5.621-5.557A5.665,5.665,0,0,1,351.549,4421.8Zm1.833-12.783h-2.2l-.462-.9a9.008,9.008,0,0,0,1.7.154c.594,0,1.255-.044,1.519-.748a24.1,24.1,0,0,0,.793-4.794h-3.654c-.44,1.583-1.607,4.53-6.648,6.443l-.616-.7a8.563,8.563,0,0,0,5.57-5.739h-4.557v-.792h4.755a6.447,6.447,0,0,0,.154-1.32,2.128,2.128,0,0,0-.286-1.143l1.937.176c.286.022.352.066.352.2a1.65,1.65,0,0,1-.2.55,14.842,14.842,0,0,1-.264,1.54h5.217C356,4409.013,355.034,4409.013,353.382,4409.013Zm7.379,12.783a5.661,5.661,0,0,1,5.65,5.614,5.65,5.65,0,0,1-11.3,0A5.661,5.661,0,0,1,360.761,4421.8Zm0,9.972a4.329,4.329,0,0,0,4.305-4.357,4.305,4.305,0,1,0-8.61,0A4.329,4.329,0,0,0,360.761,4431.768Zm8.111-3.386c0,1.757.529,3.386,2.6,3.386s2.6-1.629,2.6-3.386v-6.357h1.344v6.814a3.954,3.954,0,1,1-7.895,0v-6.814h1.345Zm34.171,4.414H401.6l-1.23-2.7H395.42l-1.23,2.7h-1.444l5.149-11.229Zm-3.232-3.928-1.917-4.357-1.917,4.357Zm12.1-6.843h1.344v11.214l-8.1-8.472v8.029h-1.344V4421.51l8.1,8.472Zm18.81-.229a5.661,5.661,0,0,1,5.65,5.614,5.65,5.65,0,0,1-11.3,0A5.661,5.661,0,0,1,430.722,4421.8Zm0,9.972a4.329,4.329,0,0,0,4.305-4.357,4.305,4.305,0,1,0-8.61,0A4.329,4.329,0,0,0,430.722,4431.768Zm12.158-8.515H439v3.029h3.747v1.229H439v5.286h-1.345v-10.771h5.22Zm9.656,9.543h-1.344v-10.771h1.344Zm7.152-11a5.207,5.207,0,0,1,2.717.729v1.557a4.29,4.29,0,0,0-7.108,3.343,4.244,4.244,0,0,0,7.108,3.258v1.585a5.84,5.84,0,0,1-2.832.757,5.579,5.579,0,0,1-5.621-5.557A5.665,5.665,0,0,1,459.687,4421.8Zm10.113,1.457h-4.448v3.014h4.319v1.229h-4.319v4.071H469.8v1.229h-5.792v-10.771H469.8Z" transform="translate(-200.998 -4382.007)" fill="#f1a5a6"/>
</svg>
