<svg xmlns="http://www.w3.org/2000/svg" width="85.997" height="69.989" viewBox="0 0 85.997 69.989">
  <path id="シェイプ_6" data-name="シェイプ 6" d="M732.812,3732.523l-.618-9.569s-11.279.033-11.762.033a6.452,6.452,0,0,1-6.433-6.469v-15.728a6.434,6.434,0,1,1,12.868,0v13.806h9.226a4.164,4.164,0,0,1,4.156,4.18l-.374,13.594a3.542,3.542,0,0,1-3.454,3.63h-.076A3.545,3.545,0,0,1,732.812,3732.523ZM761.575,3736a3.543,3.543,0,0,1-3.454-3.631l-.373-13.594a4.164,4.164,0,0,1,4.155-4.178h9.227v-13.806a6.434,6.434,0,1,1,12.868,0v15.727a6.452,6.452,0,0,1-6.433,6.469c-.483,0-11.763-.034-11.763-.034l-.618,9.571a3.546,3.546,0,0,1-3.535,3.476Zm8.537-4.374v-5.009h6.809a10.143,10.143,0,0,0,10.094-10.15v-10.435H792v10.435a15.134,15.134,0,0,1-15.075,15.159Zm-49.037,0A15.136,15.136,0,0,1,706,3716.465v-10.435h4.983v10.435a10.142,10.142,0,0,0,10.094,10.15h6.811v5.009Zm25.914-1.374V3715.47h4.15v14.781ZM731.807,3712.2v-3.643l5.479-9.823H762l5.479,9.823v3.643Zm9.673-17c0-6.46,1.809-13.328,8.064-13.328s8.067,6.868,8.067,13.328Zm29.5-9.733a6.58,6.58,0,1,1,6.58,6.61A6.6,6.6,0,0,1,770.98,3685.46Zm-57.129,0a6.58,6.58,0,1,1,6.579,6.61A6.595,6.595,0,0,1,713.85,3685.46Zm28.719-12.44a6.97,6.97,0,1,1,6.97,7.01A6.99,6.99,0,0,1,742.57,3673.02Z" transform="translate(-706 -3666.01)" fill="#f57679"/>
</svg>
