<svg xmlns="http://www.w3.org/2000/svg" width="200" height="200" viewBox="0 0 200 200">
  <g id="グループ_2" data-name="グループ 2" transform="translate(-507 -1568)">
    <g id="楕円形_4" data-name="楕円形 4" transform="translate(507 1568)" fill="#fff" stroke="#f2bcbd" stroke-width="5">
      <circle cx="100" cy="100" r="100" stroke="none"/>
      <circle cx="100" cy="100" r="97.5" fill="none"/>
    </g>
    <g id="グループ_5" data-name="グループ 5">
      <path id="シェイプ_127" data-name="シェイプ 127" d="M616.755,1710.757a1.952,1.952,0,0,1-1.97-1.931v-24.1h24.179v24.1a1.951,1.951,0,0,1-1.971,1.931Zm-34.807,0a1.95,1.95,0,0,1-1.969-1.931v-24.1h24.178v24.1a1.952,1.952,0,0,1-1.971,1.931Z" fill="#ffcec0"/>
      <path id="シェイプ_131" data-name="シェイプ 131" d="M642.469,1671.532l5.6-15.1a4.819,4.819,0,0,1,6.144-2.813,4.683,4.683,0,0,1,2.864,6.035l-5.6,15.1Zm-82.57-11.884a4.685,4.685,0,0,1,2.865-6.035,4.819,4.819,0,0,1,6.144,2.813l5.6,15.1-9.011,3.22Z" fill="#fdb0a0"/>
      <path id="シェイプ_130" data-name="シェイプ 130" d="M571.339,1681v-7.525l-2.083.761-5.552-15.313a4.76,4.76,0,0,0-2.714-2.8,4.746,4.746,0,0,1,8.651.633l4.61,12.711h72.213V1681Zm75.738-7.3,5.555-15.311a4.78,4.78,0,0,0-.827-4.7,4.7,4.7,0,0,1,2.452.213,4.78,4.78,0,0,1,2.844,6.117l-5.554,15.313Z" fill="#f69583"/>
      <path id="シェイプ_125" data-name="シェイプ 125" d="M645.938,1669.269a25.579,25.579,0,0,0-.023-36.266,25.863,25.863,0,0,0-35.14-1.219,1.978,1.978,0,0,1-2.58,0A25.862,25.862,0,0,0,573.055,1633a25.579,25.579,0,0,0-.023,36.266l35.2,35.042a1.772,1.772,0,0,0,2.5,0Z" fill="#fb4a59"/>
      <path id="シェイプ_126" data-name="シェイプ 126" d="M645.982,1669.365l-35.1,34.942a1.768,1.768,0,0,1-2.5,0L604,1699.937l33.524-33.374a25.565,25.565,0,0,0-5.955-40.573,25.573,25.573,0,0,1,14.412,43.375Z" fill="#f82f40"/>
      <path id="シェイプ_129" data-name="シェイプ 129" d="M629.924,1701.124l-3.884-.76a1.526,1.526,0,0,1-1.2-1.793l1.032-5.333a18.263,18.263,0,0,1,15.279-14.62,1.526,1.526,0,0,0,1.278-1.223l2.445-12.659a4.927,4.927,0,0,1,6.494-3.722,5.027,5.027,0,0,1,3.16,5.713l-2.712,14-1.245,6.422a17.567,17.567,0,0,1-20.646,13.98Zm-63.5-13.98-1.246-6.422-2.711-14a5.028,5.028,0,0,1,3.16-5.713,4.927,4.927,0,0,1,6.494,3.722l2.445,12.659a1.526,1.526,0,0,0,1.278,1.223,18.262,18.262,0,0,1,15.279,14.62l1.033,5.333a1.528,1.528,0,0,1-1.2,1.793l-3.883.76a17.568,17.568,0,0,1-20.647-13.98Z" fill="#ffdfd0"/>
      <path id="シェイプ_128" data-name="シェイプ 128" d="M632.857,1701.123l-1.845-.36a17.664,17.664,0,0,0,17.726-14.3l1.249-6.422,2.721-14a5.094,5.094,0,0,0-1.823-4.969,4.91,4.91,0,0,1,3.475-.057,5.025,5.025,0,0,1,3.168,5.712l-2.719,13.995-1.248,6.425a17.627,17.627,0,0,1-20.7,13.976Zm-43.521-5.782a18.287,18.287,0,0,0-15.321-14.62,1.529,1.529,0,0,1-1.281-1.223l-2.453-12.659a4.946,4.946,0,0,0-4.28-3.98,4.855,4.855,0,0,1,2.379-1.843,4.942,4.942,0,0,1,6.514,3.721l2.452,12.659a1.531,1.531,0,0,0,1.282,1.223,18.287,18.287,0,0,1,15.321,14.62l1.037,5.328a1.531,1.531,0,0,1-1.209,1.8l-3.336.652Z" fill="#ffcec0"/>
    </g>
  </g>
</svg>
