<svg xmlns="http://www.w3.org/2000/svg" width="83.022" height="64.985" viewBox="0 0 83.022 64.985">
  <path id="シェイプ_126" data-name="シェイプ 126" d="M835.933,1256.167a4.033,4.033,0,0,1-1.031-3.531l.48-3.091a8.141,8.141,0,0,1,4.325-6.011l10.1-5.166a2.441,2.441,0,0,0,.788-.677c2.922,3.127,6.474,4.965,10.307,4.965s7.382-1.839,10.3-4.965a2.454,2.454,0,0,0,.789.677l10.1,5.166a8.141,8.141,0,0,1,4.325,6.011l.48,3.091a4.033,4.033,0,0,1-1.031,3.531c-1.306,1.08-6.13,7.819-24.961,7.819S837.238,1257.247,835.933,1256.167Zm56.622-19.252h-7.076v-7.5h7.076v-4.944l11.455,8.694-11.455,8.692Zm-64.491,0h-7.076v-7.5h7.076v-4.944l11.455,8.694-11.455,8.692Zm20.681-16.373-1-8c-.621-7.86,5.718-13.541,13.156-13.541s13.774,5.682,13.152,13.541l-1,8c-.706,7.4-5.439,12.295-12.15,12.295S849.451,1227.947,848.744,1220.542Z" transform="translate(-820.987 -1199.001)" fill="#f57679"/>
</svg>
