<svg xmlns="http://www.w3.org/2000/svg" width="69.981" height="64.977" viewBox="0 0 69.981 64.977">
  <path id="シェイプ_124" data-name="シェイプ 124" d="M605.673,1265.984a1.657,1.657,0,0,1-1.328-.667,1.675,1.675,0,0,1-.271-1.469l6.659-23.366a1.669,1.669,0,0,1,1.6-1.213h2.827v11.973c0,.015,0,.028,0,.041l.031-.041a5.014,5.014,0,0,0,5,5.024h37.645a5.017,5.017,0,0,0,5-5.024v-11.973h2.827a1.67,1.67,0,0,1,1.6,1.213l6.659,23.366a1.675,1.675,0,0,1-.271,1.469,1.657,1.657,0,0,1-1.328.667H605.673Zm14.487-13.068a1.669,1.669,0,0,1-1.664-1.674v-23.61a1.689,1.689,0,0,1,.576-1.269l18.823-16.33a1.66,1.66,0,0,1,2.176,0l18.82,16.33a1.681,1.681,0,0,1,.58,1.269v23.61a1.669,1.669,0,0,1-1.667,1.674Zm20.488-13.272v5.866a1.67,1.67,0,0,0,1.668,1.676h5.827a1.67,1.67,0,0,0,1.665-1.676v-5.866a1.67,1.67,0,0,0-1.665-1.675h-5.827A1.67,1.67,0,0,0,640.649,1239.644Zm-12.493,0v5.866a1.671,1.671,0,0,0,1.668,1.675h5.829a1.67,1.67,0,0,0,1.664-1.675v-5.866a1.67,1.67,0,0,0-1.664-1.676h-5.829A1.671,1.671,0,0,0,628.156,1239.645Zm12.493-12.565v5.865a1.669,1.669,0,0,0,1.668,1.676h5.827a1.67,1.67,0,0,0,1.665-1.676v-5.865a1.67,1.67,0,0,0-1.665-1.676h-5.827A1.669,1.669,0,0,0,640.649,1227.08Zm-12.493,0v5.865a1.67,1.67,0,0,0,1.668,1.676h5.829a1.67,1.67,0,0,0,1.664-1.676v-5.865a1.67,1.67,0,0,0-1.664-1.676h-5.829A1.67,1.67,0,0,0,628.156,1227.08Zm-16.051-.324a2.522,2.522,0,0,1,.266-3.542l24.984-21.6a2.486,2.486,0,0,1,3.257,0l24.98,21.6a2.511,2.511,0,0,1-1.631,4.416,2.481,2.481,0,0,1-1.623-.607l-23.354-20.191-23.355,20.191a2.466,2.466,0,0,1-1.624.607A2.5,2.5,0,0,1,612.105,1226.756Z" transform="translate(-604.01 -1201.008)" fill="#f57679"/>
</svg>
