<svg xmlns="http://www.w3.org/2000/svg" width="53.978" height="64.997" viewBox="0 0 53.978 64.997">
  <path id="シェイプ_123" data-name="シェイプ 123" d="M1057.092,1262a1.081,1.081,0,0,1-1.08-1.083v-58.5a1.082,1.082,0,0,1,1.08-1.083h5.4v-3.25a1.081,1.081,0,0,1,1.08-1.083H1093.8c.023,0,.044.012.061.008a1.07,1.07,0,0,1,.281.057c.033.012.067.021.1.035a1.1,1.1,0,0,1,.316.217l15.115,15.167a1.11,1.11,0,0,1,.216.317c.014.033.023.068.036.1a1.059,1.059,0,0,1,.055.279c0,.023.014.044.014.068v41.165a1.082,1.082,0,0,1-1.079,1.084h-5.4v5.416a1.082,1.082,0,0,1-1.081,1.083Zm1.079-2.166h43.182V1255.5H1063.57a1.082,1.082,0,0,1-1.08-1.084V1203.5h-4.318Zm6.477-6.5h43.182v-39H1093.8a1.081,1.081,0,0,1-1.08-1.083v-14.083h-28.068Zm30.227-41.165H1106.3l-11.427-11.468Zm-18.352,33.583a1.084,1.084,0,0,1,0-2.167h25.908a1.084,1.084,0,0,1,0,2.167Zm-6.477,0a1.084,1.084,0,0,1,0-2.167h2.158a1.084,1.084,0,0,1,0,2.167Zm6.477-6.5a1.083,1.083,0,0,1,0-2.166h25.908a1.083,1.083,0,0,1,0,2.166Zm-6.477,0a1.083,1.083,0,0,1,0-2.166h2.158a1.083,1.083,0,0,1,0,2.166Zm6.477-6.5a1.083,1.083,0,0,1,0-2.166h25.908a1.083,1.083,0,0,1,0,2.166Zm-6.477,0a1.083,1.083,0,0,1,0-2.166h2.158a1.083,1.083,0,0,1,0,2.166Zm6.477-6.5a1.084,1.084,0,0,1,0-2.167h25.908a1.084,1.084,0,0,1,0,2.167Zm-6.477,0a1.084,1.084,0,0,1,0-2.167h2.158a1.084,1.084,0,0,1,0,2.167Zm6.473-6.5a1.08,1.08,0,0,1-1.08-1.08v-.01a1.08,1.08,0,0,1,1.08-1.08h25.91a1.08,1.08,0,0,1,1.08,1.08v.01a1.08,1.08,0,0,1-1.08,1.08Zm-6.473,0a1.084,1.084,0,0,1,0-2.167h2.158a1.084,1.084,0,0,1,0,2.167Zm0-4.333a1.081,1.081,0,0,1-1.079-1.084v-6.5a1.08,1.08,0,0,1,1.079-1.084h6.477a1.081,1.081,0,0,1,1.079,1.084v6.5a1.081,1.081,0,0,1-1.079,1.084Zm1.08-2.166h4.317v-4.333h-4.317Z" transform="translate(-1056.012 -1196.999)" fill="#f57679"/>
</svg>
